<svg xmlns="http://www.w3.org/2000/svg" width="176" height="56.655" viewBox="0 0 176 56.655">
  <path id="Path_1888" data-name="Path 1888" d="M473.392,467.391l.377,1.047h1.5l-2.377-6.168h-1.645l-2.385,6.168h1.5l.388-1.047Zm-1.321-3.808.962,2.656h-1.925Zm4.862,1.775a3.132,3.132,0,0,1,3.282-3.189,2.825,2.825,0,0,1,2.579,1.508l-1.128.554a1.669,1.669,0,0,0-1.451-.9,2.027,2.027,0,0,0,0,4.05,1.646,1.646,0,0,0,1.451-.9l1.128.545a2.841,2.841,0,0,1-2.579,1.516A3.132,3.132,0,0,1,476.932,465.357Zm9.767-3.088-2.385,6.168H485.8l.392-1.047h2.644l.38,1.047h1.5l-2.373-6.168Zm-.142,3.969.962-2.656.961,2.656Zm11.824-.882a3.02,3.02,0,0,0-3.274-3.088h-2.43v6.168h2.43A3.015,3.015,0,0,0,498.381,465.357Zm-4.387-1.932h1.112a1.806,1.806,0,0,1,1.936,1.932,1.846,1.846,0,0,1-1.936,1.924h-1.112Zm11.072,5.012H500.7v-6.168h4.362v1.156h-3.048v1.306H505v1.152h-2.983v1.4h3.048Zm7.777-4.317-1.737,4.317h-.574l-1.738-4.317v4.317h-1.309v-6.168h1.839l1.5,3.726,1.5-3.726h1.851v6.168h-1.326Zm5.651,1.79-2.377-3.641h1.5l1.536,2.477,1.52-2.477h1.495l-2.356,3.641v2.527h-1.314ZM445.25,512.546h4.362V513.7h-3.049v1.3h2.987v1.157h-2.987v2.551H445.25Zm6.665,0h1.314v6.169h-1.314Zm3.545,0h4.915V513.7h-1.794v5.013h-1.318V513.7h-1.8Zm11.351,0h1.313v6.169H466.86l-2.943-4.022v4.022h-1.31v-6.169h1.346l2.858,3.877Zm3.921,0H475.1V513.7h-3.053v1.3h2.987v1.157h-2.987v1.394H475.1v1.157h-4.366Zm11.436,4.3c0,1.128-.8,1.976-2.466,1.976a3.511,3.511,0,0,1-2.608-.978l.712-1a2.707,2.707,0,0,0,1.96.833c.72,0,1.072-.336,1.072-.684,0-1.091-3.549-.344-3.549-2.664,0-1.027.889-1.879,2.341-1.879a3.429,3.429,0,0,1,2.4.861l-.727.961a2.651,2.651,0,0,0-1.8-.675c-.558,0-.872.246-.872.619C478.631,515.2,482.168,514.542,482.168,516.847Zm6.936,0c0,1.128-.805,1.976-2.47,1.976a3.515,3.515,0,0,1-2.607-.978l.711-1a2.725,2.725,0,0,0,1.965.833c.719,0,1.071-.336,1.071-.684,0-1.091-3.553-.344-3.553-2.664,0-1.027.889-1.879,2.341-1.879a3.439,3.439,0,0,1,2.4.861l-.732.961a2.638,2.638,0,0,0-1.794-.675c-.562,0-.877.246-.877.619C485.563,515.2,489.1,514.542,489.1,516.847Zm7.085-1.213a1.92,1.92,0,0,0,1.929,2.025,1.646,1.646,0,0,0,1.451-.9l1.128.545a2.836,2.836,0,0,1-2.579,1.516,3.191,3.191,0,1,1,0-6.378,2.821,2.821,0,0,1,2.579,1.508l-1.128.554a1.669,1.669,0,0,0-1.451-.9A1.92,1.92,0,0,0,496.189,515.634Zm9.605-3.189a3.189,3.189,0,1,0,3.225,3.189A3.094,3.094,0,0,0,505.794,512.445Zm0,5.214a2.031,2.031,0,1,1,1.875-2.025A1.87,1.87,0,0,1,505.794,517.659Zm10.376-5.113h1.847v6.169H516.7V514.4l-1.738,4.317h-.573l-1.738-4.317v4.317h-1.31v-6.169h1.836l1.5,3.726Zm7.341,0h-2.886v6.169h1.313v-2.2h1.573a1.988,1.988,0,1,0,0-3.973Zm-.178,2.821h-1.395V513.7h1.395a.835.835,0,1,1,0,1.665Zm5.76,2.19H531.7v1.157h-3.917v-6.169h1.309ZM534,512.546h4.366V513.7h-3.051v1.3h2.987v1.157h-2.987v1.394h3.051v1.157H534Zm10.134,2.995,2.239,3.174H544.8l-1.544-2.256-1.556,2.256h-1.561l2.235-3.162-2.1-3.007h1.565l1.415,2.106,1.394-2.106h1.581ZM421.855,478.712h-5.494l-8.173,24.682h17.983v-.012a2.712,2.712,0,0,0,2.361-3.525Zm-7.118,19.916,4.337-13.82,4.111,13.82Zm31.719-15.154h-5.376v19.92h-4.766v-19.92H430.63l-1.444-4.762H447.9Zm17.583-4.762H468.8v24.682h-4.766V493h-7.231v10.393h-4.762V478.712h4.762v9.96h7.231Zm14.237,24.682a3.655,3.655,0,0,1-3.694-3.586v-21.1h4.761v19.916h8.23l1.444,4.766Zm41.392,0v-19.92h-5.683l-1.443-4.762h18.711l-1.442,4.762h-5.38v19.92ZM535.4,478.712h4.765v24.682H535.4Zm15.3,4.762v15.154h11.262l-1.438,4.766h-10.8a3.734,3.734,0,0,1-3.783-3.586V482.326a3.758,3.758,0,0,1,3.783-3.614h10.8l1.438,4.762Zm25.32-4.762h-5.493l-6.682,21.145a2.716,2.716,0,0,0,2.365,3.525v.012h17.984l-8.17-24.682Zm-6.823,19.916,4.111-13.82,4.337,13.82Zm-76.6-15.154v-1.148c0-2,1.346-3.614,2.85-3.614h10.87c1.217,0,2.308,1.613,2.308,3.614v1.148H492.592Zm2.85,19.92c-1.5,0-2.85-1.613-2.85-3.614v-1.153h16.027v1.153c0,2-1.091,3.614-2.308,3.614h-10.87Zm-.246-14.726h10.821V493H495.2Z" transform="translate(-408.188 -462.168)" fill="#8790a6" fill-rule="evenodd"/>
</svg>
