<svg xmlns="http://www.w3.org/2000/svg" width="160" height="29.269" viewBox="0 0 160 29.269">
  <path id="Path_1887" data-name="Path 1887" d="M138.133,473.7c2.759.052,4.685,3.462,1.415,6.4l-19.484,17.73H140.8v5.138h-26c-2.72,0-4.851-3.609-1.577-6.4l19.62-17.742H112.357V473.7ZM100.26,502.972H106V473.707H100.26ZM23.127,473.7a6.23,6.23,0,0,0-6.119,6.2v23.066h5.5V480.832a2,2,0,0,1,1.96-2.007H34.541v24.147H40.28V478.825H50.353a2,2,0,0,1,1.959,2.007v22.141h5.516V479.906a6.221,6.221,0,0,0-6.107-6.2Zm46.192,7.078a1.955,1.955,0,0,1,1.955-1.956H93.524V473.7H70.249a6.22,6.22,0,0,0-6.1,6.2V496.77a6.22,6.22,0,0,0,6.2,6.2H93.524v-5.126H71.273a1.954,1.954,0,0,1-1.955-1.955V490.9H92.572v-5.144H69.318ZM171.492,473.7v22.14a2,2,0,0,1-1.962,2H153.7a1.991,1.991,0,0,1-1.945-2V473.7h-5.516V496.77a6.223,6.223,0,0,0,6.2,6.2H170.8a6.22,6.22,0,0,0,6.2-6.173V473.7Z" transform="translate(-17.008 -473.703)" fill="#8790a6" fill-rule="evenodd"/>
</svg>
