<svg xmlns="http://www.w3.org/2000/svg" width="176" height="35.994" viewBox="0 0 176 35.994">
  <g id="sponser-sportfood" transform="translate(0 0)">
    <path id="Subtraction_2" data-name="Subtraction 2" d="M14.49,35.994H3.234A3.235,3.235,0,0,1,0,32.824V15.263A15.365,15.365,0,0,1,3.958,4.814,14.38,14.38,0,0,1,9.4,1.328,24.005,24.005,0,0,1,17.737,0H29.751a3.237,3.237,0,0,1,3.235,3.171V20.73a16.36,16.36,0,0,1-1.054,5.555,13.737,13.737,0,0,1-3.184,4.895,15.392,15.392,0,0,1-5.689,3.486A25.473,25.473,0,0,1,14.49,35.994ZM21.544,4.758c-1.7,0-3.681,0-5.128.007h-.093l-1.409,0a4.988,4.988,0,0,0-4.6,2.727,4.3,4.3,0,0,0,.6,4.635c1.922,2.772,6.075,7.314,6.117,7.36a1.192,1.192,0,0,1,.329,1.055.974.974,0,0,1-.483.684c-.326.151-7.7,3.67-9.654,4.624a.5.5,0,0,0-.234.323.844.844,0,0,0,.046.624l2.923,5a.344.344,0,0,0,.317.139,1.391,1.391,0,0,0,.574-.154c.613-.321,1.954-1.046,3.374-1.814,2.868-1.551,6.8-3.676,8.649-4.6A4.718,4.718,0,0,0,25.668,22.1a5.091,5.091,0,0,0-1.522-4.316c-1.682-1.844-4.663-4.82-5.785-5.941l-.006-.005-.1-.1-.129-.129c-.65-.65-.572-1.172-.467-1.424a1.059,1.059,0,0,1,.96-.634h6.055a.556.556,0,0,0,.541-.543V5.392a.639.639,0,0,0-.535-.623C24.118,4.762,23.062,4.758,21.544,4.758Z" transform="translate(143.013 0)" />
    <path id="Path_3228" data-name="Path 3228" d="M190.274,22.017v8.736a.518.518,0,0,1-.5.5h-4.291a.517.517,0,0,1-.5-.5V14.9a.517.517,0,0,1,.5-.5h4.888a.841.841,0,0,1,.431.246l5.34,8.965V14.9a.517.517,0,0,1,.5-.5h4.267a.517.517,0,0,1,.5.5V30.753a.518.518,0,0,1-.5.5h-4.885A.829.829,0,0,1,195.59,31c-1.74-3.008-3.481-6.035-5.315-8.988" transform="translate(-125.7 -9.783)" />
    <path id="Path_3229" data-name="Path 3229" d="M304.451,18.7v1.857h7.461a.517.517,0,0,1,.5.5v3.149a.516.516,0,0,1-.5.5h-7.461v2.16h7.661a.517.517,0,0,1,.5.5v3.383a.517.517,0,0,1-.5.5H299.306a.516.516,0,0,1-.5-.5V14.9a.516.516,0,0,1,.5-.5h12.806a.517.517,0,0,1,.5.5v3.29a.517.517,0,0,1-.5.5Z" transform="translate(-203.05 -9.784)" />
    <path id="Path_3230" data-name="Path 3230" d="M246.476,20.638c.753.752,3.9,3.885,5.6,5.746,2.165,2.372,2.1,5.422-1.181,7.059-2.612,1.3-9.543,5.107-11.192,5.971-.235.123-.693.241-.829.015l-2.723-4.65a.718.718,0,0,1,.176-.881c1.787-.872,8.659-4.154,8.986-4.3a1.023,1.023,0,0,0,.144-1.618,87.845,87.845,0,0,1-5.694-6.853c-2.336-2.911-.12-6.852,3.721-6.852,1.915,0,7.436-.02,9.091,0a.6.6,0,0,1,.5.58v3.367a.517.517,0,0,1-.5.5h-5.637c-.708,0-1.5.879-.458,1.918" transform="translate(-160.423 -9.69)" />
    <path id="Path_3231" data-name="Path 3231" d="M76.911,25.544a12.084,12.084,0,0,1-3.232.56c-1.059.062-3.051.051-4.08.049v4.6a.516.516,0,0,1-.5.5H64.409a.517.517,0,0,1-.5-.5V14.9a.518.518,0,0,1,.5-.5h8.83c3.849,0,7.1,1.529,7.1,5.936,0,3.037-1.433,4.517-3.428,5.21m-4.138-6.9H69.5v3.244h3.248c1.138,0,2.136-.443,2.158-1.65,0-1.2-1.014-1.593-2.134-1.593" transform="translate(-43.426 -9.784)" />
    <path id="Path_3232" data-name="Path 3232" d="M366.312,23.357a3.124,3.124,0,0,1,2.2,2.2,7.338,7.338,0,0,1,.27,1.871c.023.647,0,1.318,0,1.973v1.353a.517.517,0,0,1-.5.5h-4.423a.517.517,0,0,1-.5-.5c0-.606,0-1.561,0-1.7a7.333,7.333,0,0,0-.361-2.428,1.536,1.536,0,0,0-1.516-1.081h-3.591v5.207a.517.517,0,0,1-.5.5h-4.594a.517.517,0,0,1-.5-.5V14.9a.517.517,0,0,1,.5-.5H362.8c2.977,0,6,1.336,6,4.84a4.216,4.216,0,0,1-2.493,4.118m-8.507-4.738v3.009l3.458-.022a3.7,3.7,0,0,0,1.5-.238,1.162,1.162,0,0,0,.708-1.15c0-1.235-.748-1.6-1.924-1.6Z" transform="translate(-239.389 -9.784)" />
    <path id="Path_3233" data-name="Path 3233" d="M10.4,20.638c.752.752,3.9,3.885,5.6,5.746,2.164,2.372,2.1,5.422-1.182,7.059-2.611,1.3-9.542,5.107-11.192,5.971-.234.123-.692.241-.829.015L.078,34.778A.717.717,0,0,1,.253,33.9c1.787-.872,8.66-4.154,8.987-4.3a1.024,1.024,0,0,0,.144-1.618A87.47,87.47,0,0,1,3.69,21.122c-2.336-2.911-.12-6.852,3.72-6.852,1.915,0,7.437-.02,9.091,0a.6.6,0,0,1,.5.58v3.367a.517.517,0,0,1-.5.5H10.857c-.707,0-1.5.879-.457,1.918" transform="translate(0 -9.69)" />
    <path id="Path_3234" data-name="Path 3234" d="M133.424,20.759a3.9,3.9,0,1,0-3.9,3.9,3.9,3.9,0,0,0,3.9-3.9m5.127,0a9.031,9.031,0,1,1-9.03-9.032,9.031,9.031,0,0,1,9.03,9.032" transform="translate(-81.878 -7.969)" />
    <path id="Path_3235" data-name="Path 3235" d="M95.235,83.647c.255,0,.6-.112.6-.416,0-.634-2.431-.289-2.431-1.957,0-.865.824-1.216,1.576-1.216.819,0,1.763.421,1.749,1.358v.03H95.68c-.029-.4-.374-.552-.729-.552-.243,0-.54.083-.54.38,0,.659,2.437.326,2.431,1.862,0,1.008-.966,1.335-1.814,1.335-.872,0-1.732-.457-1.72-1.429v-.048H94.34c.03.517.451.653.9.653" transform="translate(-63.407 -54.403)" />
    <path id="Path_3236" data-name="Path 3236" d="M125.027,80.412a1.209,1.209,0,0,1,1.317,1.323c0,1.452-1.181,1.369-2.265,1.369v1.5h-1.062V80.412Zm.261,1.352a.447.447,0,0,0-.462-.51h-.747v1h.664c.313,0,.546-.148.546-.486" transform="translate(-83.595 -54.643)" />
    <path id="Path_3237" data-name="Path 3237" d="M154.316,82.294a2.019,2.019,0,0,1-2.088,2.176,1.984,1.984,0,0,1-2.093-2.176,2.1,2.1,0,1,1,4.181,0m-2.105,1.275c.735,0,1.037-.664,1.037-1.3s-.278-1.322-1-1.322-1.043.634-1.043,1.281.267,1.346,1.015,1.346Z" transform="translate(-102.023 -54.402)" />
    <path id="Path_3238" data-name="Path 3238" d="M183.764,80.412c.788,0,1.447.3,1.447,1.18a.982.982,0,0,1-.677,1,.843.843,0,0,1,.564.913c0,.154-.012.308-.012.469a.519.519,0,0,0,.19.487V84.6l-1.115.006a1.574,1.574,0,0,1-.113-.836c0-.379-.041-.736-.51-.736h-.824V84.6h-1.039V80.412Zm.385,1.334c0-.39-.255-.492-.6-.492h-.836V82.2h.871c.3,0,.564-.13.564-.457" transform="translate(-123.457 -54.643)" />
    <path id="Path_3239" data-name="Path 3239" d="M213.233,80.412v.872h-1.21V84.6H210.95V81.284h-1.21v-.872Z" transform="translate(-142.527 -54.643)" />
    <path id="Path_3240" data-name="Path 3240" d="M301.559,80.412v.872h-2.022v.871h1.78v.871h-1.78V84.6h-1.056V80.412Z" transform="translate(-202.831 -54.643)" />
    <path id="Path_3241" data-name="Path 3241" d="M331.127,82.294a2.018,2.018,0,0,1-2.087,2.176,1.985,1.985,0,0,1-2.094-2.176,2.1,2.1,0,1,1,4.181,0m-2.1,1.275c.735,0,1.037-.664,1.037-1.3s-.278-1.322-1-1.322-1.043.634-1.043,1.281.267,1.346,1.014,1.346Z" transform="translate(-222.174 -54.402)" />
    <path id="Path_3242" data-name="Path 3242" d="M363.852,82.294a2.019,2.019,0,0,1-2.088,2.176,1.985,1.985,0,0,1-2.094-2.176,2.1,2.1,0,1,1,4.182,0m-2.106,1.275c.735,0,1.037-.664,1.037-1.3s-.277-1.322-1-1.322-1.043.634-1.043,1.281.265,1.346,1.013,1.346l-.006-.006Z" transform="translate(-244.411 -54.402)" />
    <path id="Path_3243" data-name="Path 3243" d="M394.782,80.412c1.34,0,1.921.682,1.921,1.993,0,1.091-.5,2.194-1.744,2.194h-1.933V80.412Zm.847,2.081c0-.658-.112-1.186-.9-1.186h-.647V83.7h.67c.742,0,.872-.587.872-1.2" transform="translate(-267.078 -54.643)" />
    <path id="Subtraction_1" data-name="Subtraction 1" d="M5.21,4.549H.513A.522.522,0,0,1,0,4.045V.5A.522.522,0,0,1,.513,0h4.7a.522.522,0,0,1,.513.5V4.045A.522.522,0,0,1,5.21,4.549ZM2.35,2.786v1.18H3.374V2.786H4.555V1.761H3.374V.582H2.35V1.761H1.169V2.786Z" transform="translate(20.48 25.591)" />
    <path id="Path_3246" data-name="Path 3246" d="M410.689,19.338h.408V18h.509c.481,0,.6.117.641.568a3.75,3.75,0,0,0,.145.771h.421a4.318,4.318,0,0,1-.174-.931c-.044-.363-.145-.495-.451-.568a.7.7,0,0,0,.553-.712c0-.742-.786-.742-1-.742h-1.048Zm.408-2.6h.64c.218,0,.582,0,.582.466s-.378.452-.582.452h-.64Zm.6-1.6a2.758,2.758,0,1,0,2.75,2.75,2.767,2.767,0,0,0-2.75-2.75m0,.328a2.434,2.434,0,1,1-2.424,2.423,2.427,2.427,0,0,1,2.424-2.423" transform="translate(-277.893 -10.283)" />
  </g>
</svg>
