<svg xmlns="http://www.w3.org/2000/svg" width="160" height="66.296" viewBox="0 0 160 66.296">
  <path id="Path_1889" data-name="Path 1889" d="M298.43,467.147c.1.1.143.077.4.161a1.258,1.258,0,0,0,.764-.007c.341-.07.636.033,1.444.554a12.213,12.213,0,0,1,2.33,3.182c.309.555.386.445.753.75a7.883,7.883,0,0,1,1.117,1.22c.254.368.052-.147-.058-.885a9,9,0,0,0-.47-1.739,3.4,3.4,0,0,0-.857-.993,5.549,5.549,0,0,1-.58-1.072c-.132-.221-.168-.169-.2-.482a1.261,1.261,0,0,0-.118-.6.917.917,0,0,1-.154-.43,1.1,1.1,0,0,0-.143-.437c-.085-.168-.217-.195-.173-.411s.324-.3.647-.144a1.407,1.407,0,0,1,.673.915c.066.331.114.085.165-.073s-.007-.279-.007-.511a4.005,4.005,0,0,0-.169-.717c-.052-.249-.066-.679-.11-.933a5.37,5.37,0,0,1-.166-.779c-.044-.437.073-.632.243-.665a.437.437,0,0,1,.312.073c-.033-.224.176-.555.47-.485a.363.363,0,0,1,.3.32.531.531,0,0,1,.294.007c.143.052.253.489.371.765s.459,1.032.53,1.176a2.8,2.8,0,0,1,.345.705,2.654,2.654,0,0,0,.4.783,4.742,4.742,0,0,1,.172,1.462c.052.757-.114,1.264-.085,1.812a14.274,14.274,0,0,0,.46,2.091c.132.511,1.018,2.811,1.157,3.37a20.31,20.31,0,0,1,.133,2.462,2.878,2.878,0,0,1-.4,1.683c-.287.65-.908.536-1.488.47a1.986,1.986,0,0,1-1.29-.724c-.368-.382-1.367-1.323-1.856-1.818a14.878,14.878,0,0,1-1.437-2c-.312-.5-1.374-1.837-1.47-2s-.114-.268-.114.2a2.1,2.1,0,0,1-.268,1.01,2.085,2.085,0,0,0-.132,1.22,19.619,19.619,0,0,1-.1,2.315c-.037.551-.106,1.455-.121,2.057a12.673,12.673,0,0,1-.279,1.978,6.924,6.924,0,0,0-.209,1.3,6.651,6.651,0,0,1-.192,1.481,3.3,3.3,0,0,0-.051,1.139c0,.342-.063.374-.052.6a1.553,1.553,0,0,1-.125.478,3.672,3.672,0,0,0-.007.4v.393c0,.191-.051.478-.051.6s0,.183.018.488-.055.3-.386,1.165a9.451,9.451,0,0,1-.757,1.532,43.264,43.264,0,0,1,4.807,3.535,21.885,21.885,0,0,1,3.612,3.579,6.475,6.475,0,0,0,.706.985,2.808,2.808,0,0,1,.018,1.62,5.443,5.443,0,0,0-.235,2.055,18.873,18.873,0,0,0,.647,3.973,40.963,40.963,0,0,1,.911,4.134,13.846,13.846,0,0,0,1.151,3.631s.177.025.184.051a1.018,1.018,0,0,0,.21.254,2,2,0,0,1,.357.5,1.054,1.054,0,0,0,.324.419c.154.121.11.2.2.331s-.21-.228.139.21.235.025.287-.148.114-.1.374.111.147.558.217.838.272.147.419.165a5.118,5.118,0,0,1,1.055.357,5.085,5.085,0,0,0,1.349.419c.4.052.471-.184.947-.184s1.081-.191,1.463-.217a.782.782,0,0,1,.864.713c.088.54-1.577,1.845-2.682,2.62a4.14,4.14,0,0,1-2.587.819,6,6,0,0,0-1.628.235,7.077,7.077,0,0,1-1.463.3c-.312-.011-.357-.3-.47-.533a1.292,1.292,0,0,1-.139-.47c-.007-.1-.07-.172-.261-.209s-.21-.445-.416-.948-.437-.7-.532-.966a.305.305,0,0,1,.253-.437c.148,0,.033-.217,0-.408s-.062-.393-.106-.629a3.093,3.093,0,0,0-.345-.771c-.133-.235-.386-.775-.5-.952s0-.216,0-.216-1.382-2.716-2.139-4.1a21.061,21.061,0,0,1-2-4.66,13.247,13.247,0,0,1-.195-4.255c.011-.3-.286-.445-.86-1a12.607,12.607,0,0,0-3.686-2.208,14.025,14.025,0,0,1-3.447-2.143,25.443,25.443,0,0,1-4.858,5.59,10.8,10.8,0,0,0-1.959,1.7,1.593,1.593,0,0,1-1.488.452,7.078,7.078,0,0,1-1.448-.445,10.413,10.413,0,0,0-2.807-.1c-1.445.008-2.789-.063-4.976-.184a8,8,0,0,0-2.779.107c-.077.014-.051.1-.286.11a4.678,4.678,0,0,0-1.132.279c-.357.139-.96.209-1.143.279s-.191.158-.11.235a1.5,1.5,0,0,1-.063.783.646.646,0,0,1-.742.374.449.449,0,0,1-.415-.47.71.71,0,0,0-.287.07,5.363,5.363,0,0,1-.926.279,5.361,5.361,0,0,0-1.478.713,5.93,5.93,0,0,0-1.213,1.613c-.3.5-.86.79-1.183.573s-.2-1.018,0-1.863a7.741,7.741,0,0,1,1.037-2.176c.312-.507,1.018-1.352,1.323-1.753s.426-1.315,1.1-2.418,1.4-1.081,1.673-1.022.4.386.58.481.507.541.731.644a.768.768,0,0,0,.482.062c.191-.01.114.225.33.276s.765.229,3.308-.452,2.186-.819,3.8-1.235a6.888,6.888,0,0,1,4.017.287c1.157.349,1.091.041,1.55-.455a6.57,6.57,0,0,0,1.488-2.2c.47-1.147,1.452-3.425,1.672-3.819a1.511,1.511,0,0,0,.25-.573c.025-.14-.166-.349-.407-.611s-.121-.363-.243-.712a4.846,4.846,0,0,1,.04-1.4c.018-.514-.1-.5-.085-.789a.938.938,0,0,1,.147-.541c.114-.22.019-.228.07-.47s.14-.756.21-1.055a4.991,4.991,0,0,0,.1-.889,6.831,6.831,0,0,1,.33-1.521,1.381,1.381,0,0,1,1-.68c.29-.052.018-.166-.067-.349a1.421,1.421,0,0,1,.033-.783c.063-.279-.356-.6-.628-1.15a8.023,8.023,0,0,1-.5-1.315c-.11-.364-.243-1-.58-2.055a10.91,10.91,0,0,1-.459-2.41c-.007-.187-.166-.243-.276-.463a.243.243,0,0,1,.044-.327s-.474-1-1.077-1.977a3.753,3.753,0,0,1-.6-1.712c-.044-.158-.2-.044-1.168.335a12.031,12.031,0,0,1-3.227.914,4.814,4.814,0,0,0-1.624.264c-.25.115-.294.545-.312.79a19.53,19.53,0,0,1-.144,2.058,7.4,7.4,0,0,0,.169,2.8,7.3,7.3,0,0,0,.875,2.422c.209.455.7.731.834,1s.31.64.46.952a1.634,1.634,0,0,1,.213.856,3.519,3.519,0,0,0,.511,1.327c.133.246.21.422-.008.628a.779.779,0,0,1-.914-.073,2.9,2.9,0,0,1-.416-1.066c-.058-.3-.1-.044-.118.114a5.123,5.123,0,0,1-.334.9,7,7,0,0,0-.345.977c-.11.375-.195.46-.261.728a4.3,4.3,0,0,1-.459,1.069.349.349,0,0,1-.488.107.33.33,0,0,1-.221.239.29.29,0,0,1-.386-.125,1.609,1.609,0,0,1,.037-.482c-.062.136-.371.133-.488.066s-.118-.209-.1-.434.066-.6.066-.6c-.2.066-.245-.162-.245-.445s.044-.374.051-.61a11.281,11.281,0,0,1,.14-1.166,4.7,4.7,0,0,0,.088-.812,3.993,3.993,0,0,0-.125-.9,2.088,2.088,0,0,1,.176-1.055c.121-.374-.037-.382-.132-.617a3.585,3.585,0,0,1-.165-.993,21.47,21.47,0,0,0-.775-2.936,17.649,17.649,0,0,1-.732-3.15c-.051-.646-.058-1.473-.128-2.073a1.584,1.584,0,0,1,.529-1.326,10.188,10.188,0,0,1,1.988-1.261c.6-.3.5-.286,1.706-.908a6.994,6.994,0,0,1,2.491-.746c.262-.029.235-.132.547-.488a4.242,4.242,0,0,1,1.253-.948,9.251,9.251,0,0,1,1.1-.565,1.9,1.9,0,0,1,1.706.235c.216.139.382-.019.636-.221s.783-.4.87-.5a.546.546,0,0,1,.393-.147c.148,0,.148.051.2,0s.306.007.438.033.18-.04.339-.191.184-.059.228-.059a.319.319,0,0,0,.224-.095c.125-.1.125,0,.3.025s.107.007.54-.4.368-1.282.393-1.5-.3-.515-.6-1.08a7.384,7.384,0,0,1-.757-1.775,4.093,4.093,0,0,1,.008-2.506c.272-1.187.628-1.359.628-1.359-.114-.2-.765-.077-.765-.077.1-.3,1.062-.158,1.062-.158-.01-.114-.235-.287-.235-.287a.566.566,0,0,1,.46.147,1.122,1.122,0,0,1,.749-.654.8.8,0,0,0-.452.515,4.491,4.491,0,0,1,2.767-.636,6.274,6.274,0,0,1,2.936,1,2.074,2.074,0,0,1,.765.834c-.077-.1-.3-.051-.3-.051a1.038,1.038,0,0,1,.334.573c-.044-.033-.209,0-.209,0a1.222,1.222,0,0,1,.2.838.194.194,0,0,0-.2-.1s.128.511.216.941a3.184,3.184,0,0,0,.331.823c.084.2-.1.489-.243.647a1.152,1.152,0,0,0-.136.7c-.008.243.412.544.507.831s-.176.47-.323.51a.488.488,0,0,0-.342.235c-.058.121.033.287.059.431a1.331,1.331,0,0,1-.2.606c-.11.228-.052.276-.052.463s-.11.217-.195.3-.066.124-.1.386a.847.847,0,0,1-.107.363A.751.751,0,0,1,298.43,467.147Zm-24.8,13.942a6.9,6.9,0,0,0-.279-.963,5.587,5.587,0,0,0-1.529-2.238A7.283,7.283,0,0,0,269,476.407a15.039,15.039,0,0,0-4.266-.521,15.976,15.976,0,0,0-4.917.679,9.305,9.305,0,0,0-3.418,1.9,8.807,8.807,0,0,0-1.98,2.624Zm-20.5,6.291a18.139,18.139,0,0,0,.882,5.671,10.251,10.251,0,0,0,2.764,4.45,6.627,6.627,0,0,0,4.685,1.738,8.378,8.378,0,0,0,4.586-1.356,13.8,13.8,0,0,0,3.715-3.534,21.294,21.294,0,0,0,2.6-4.719,21.047,21.047,0,0,0,1.33-4.854,13.837,13.837,0,0,0,.133-1.8v-.121h-6.346a3.893,3.893,0,0,1,.132,1.062,10.313,10.313,0,0,1-.081,1.15,17.283,17.283,0,0,1-1.143,4.123,12.887,12.887,0,0,1-1.969,3.406,3.069,3.069,0,0,1-2.191,1.364,1.927,1.927,0,0,1-1.565-.963,7.362,7.362,0,0,1-1.055-2.543,14.327,14.327,0,0,1-.374-3.314,14.111,14.111,0,0,1,.133-2.073,6.341,6.341,0,0,1,.694-2.212h-6.325a14,14,0,0,0-.419,1.926A20.368,20.368,0,0,0,253.131,487.38Zm-13.292-4.531h-5.847l-2.227,15.9h5.853Zm5.394,0a3.455,3.455,0,0,1-1.132,1.893,16.912,16.912,0,0,1-2.389,1.87c-.9.6-1.709,1.128-2.422,1.595a45.248,45.248,0,0,0,6.651,13.935l5.376-3.4a47.2,47.2,0,0,1-2.977-4.7,34.506,34.506,0,0,1-2.172-4.828A16.272,16.272,0,0,0,250.1,486.1a7.382,7.382,0,0,0,1.716-3.248Zm-10.043-6.471-1.951,4.711H252a4.694,4.694,0,0,0-1.393-3.315q-1.394-1.394-4.63-1.4Zm-3.549,4.711a5.374,5.374,0,0,0-.335-1.577,4.3,4.3,0,0,0-1.109-1.625,5.291,5.291,0,0,0-2.04-1.109,10.209,10.209,0,0,0-3.043-.4h-9.1l-1.947,4.711Zm-12.49,12.7a35.692,35.692,0,0,0,5.533-2.716,20.143,20.143,0,0,0,3.753-2.873,12.176,12.176,0,0,0,2.2-2.878,8.583,8.583,0,0,0,.885-2.469h-6.026c.008.085.01.173.01.264a4.264,4.264,0,0,1-1.9,2.653,21.674,21.674,0,0,1-3.638,2.242l.713-5.159h-5.858l-2.223,15.9h5.857Zm152.786-12.7.661-4.711h-5.854l-.661,4.711Zm-8.342,0-3.373-4.711h-5.579l-.661,4.711Zm8.1,1.76h-5.858l-.161,1.139-.816-1.139H353.731l-2.242,15.9h5.854l2.01-14.133h.047l5.123,7.53-.937,6.6h5.872Zm-21.421-1.76.665-4.711H345.07l-.661,4.711Zm-10.289,0c.349-.621.706-1.242,1.076-1.864q.965-1.614,1.717-2.848h-6.317q-1.538,2.4-2.668,4.472c-.044.081-.088.162-.133.239Zm10.043,1.76h-5.862l-1.521,10.859h-2.19a7.97,7.97,0,0,1-1.675-.173,2.849,2.849,0,0,1-1.467-.9,3.157,3.157,0,0,1-.665-2.194,6.876,6.876,0,0,1,.092-.989,15.942,15.942,0,0,1,.929-3.484,33.119,33.119,0,0,1,1.374-3.123h-6.255c-.345.746-.658,1.5-.941,2.267a21.371,21.371,0,0,0-1.132,4.432,12.561,12.561,0,0,0-.147,2.021,8.653,8.653,0,0,0,.769,3.767,5.471,5.471,0,0,0,2.5,2.506,9.572,9.572,0,0,0,4.442.9h9.507Zm-32.062,0h-5.85l-2.223,15.9h5.853Zm5.391,0a3.433,3.433,0,0,1-1.132,1.893,16.65,16.65,0,0,1-2.385,1.87c-.9.6-1.712,1.128-2.425,1.595a45.251,45.251,0,0,0,6.655,13.935l5.373-3.4a46.456,46.456,0,0,1-2.973-4.7,33.468,33.468,0,0,1-2.172-4.828,16.422,16.422,0,0,0,3.925-3.117,7.422,7.422,0,0,0,1.716-3.248Zm-10.043-6.471-1.951,4.711h18.76a4.7,4.7,0,0,0-1.4-3.315q-1.394-1.394-4.63-1.4Z" transform="translate(-212.598 -456.576)" fill-rule="evenodd"/>
</svg>
