<svg xmlns="http://www.w3.org/2000/svg" width="135" height="40" viewBox="0 0 135 40">
  <g id="Group_4442" data-name="Group 4442" transform="translate(-149.121 -181.012)">
    <rect id="Rectangle_1466" data-name="Rectangle 1466" width="135" height="40" rx="6" transform="translate(149.121 181.012)" fill="#1e1e26"/>
    <path id="Path_1887" data-name="Path 1887" d="M184.009,205.713a10.955,10.955,0,0,1-1.518,3.093c-.894,1.337-1.832,2.645-3.32,2.669-1.447.033-1.933-.851-3.591-.851-1.675,0-2.193.827-3.58.884-1.417.053-2.5-1.428-3.427-2.753-1.853-2.707-3.3-7.628-1.362-10.976a5.316,5.316,0,0,1,4.473-2.728c1.419-.029,2.736.958,3.609.958.855,0,2.483-1.181,4.163-1.005a5.065,5.065,0,0,1,3.991,2.158,4.948,4.948,0,0,0-2.357,4.152A4.784,4.784,0,0,0,184.009,205.713Zm-5.65-12.489a4.873,4.873,0,0,0,1.114-3.491,4.957,4.957,0,0,0-3.207,1.66,4.634,4.634,0,0,0-1.144,3.361A4.1,4.1,0,0,0,178.359,193.224Zm21.4,18.285H201.8l-4.483-12.418h-2.083l-4.483,12.418h2.005l1.136-3.356h4.734Zm-3.528-10.352h.052l1.849,5.447H194.38Zm11.438,1.2a3.212,3.212,0,0,0-2.883,1.6h-.034v-1.505h-1.8V214.5h1.858V210.02h.043A3.069,3.069,0,0,0,207.7,211.6c2.272,0,3.778-1.808,3.778-4.621S209.966,202.361,207.669,202.361Zm-.491,7.668c-1.42,0-2.375-1.222-2.375-3.046,0-1.808.955-3.038,2.375-3.038,1.446,0,2.393,1.2,2.393,3.038C209.571,208.833,208.624,210.029,207.178,210.029Zm10.455-7.668a3.211,3.211,0,0,0-2.882,1.6h-.035v-1.505h-1.8V214.5h1.858V210.02h.043a3.069,3.069,0,0,0,2.849,1.584c2.272,0,3.778-1.808,3.778-4.621S219.931,202.361,217.633,202.361Zm-.49,7.668c-1.42,0-2.375-1.222-2.375-3.046,0-1.808.955-3.038,2.375-3.038,1.445,0,2.393,1.2,2.393,3.038C219.536,208.833,218.588,210.029,217.143,210.029Zm8.987-1.98c.12,2.246,1.979,3.667,4.733,3.667,2.943,0,4.794-1.455,4.794-3.778,0-1.816-1.059-2.84-3.607-3.442l-1.368-.336c-1.6-.4-2.255-.912-2.255-1.79,0-1.1,1.025-1.859,2.522-1.859s2.521.748,2.634,1.988h1.876c-.061-2.143-1.86-3.615-4.484-3.615-2.651,0-4.518,1.472-4.518,3.615,0,1.73,1.058,2.8,3.339,3.347l1.609.388c1.609.4,2.289.973,2.289,1.936,0,1.111-1.127,1.919-2.693,1.919-1.635,0-2.831-.808-2.969-2.04Zm11.67-7.736v2.143h-1.316v1.471H237.8v5.19c0,1.756.715,2.444,2.548,2.444a5.084,5.084,0,0,0,1.032-.086v-1.463a5.678,5.678,0,0,1-.611.043c-.757,0-1.1-.361-1.1-1.137v-4.991h1.721v-1.471h-1.721v-2.143Zm8.88,11.309c2.634,0,4.3-1.783,4.3-4.639s-1.67-4.639-4.3-4.639-4.294,1.79-4.294,4.639S244.047,211.622,246.68,211.622Zm0-1.533c-1.506,0-2.4-1.144-2.4-3.106,0-1.945.894-3.108,2.4-3.108s2.4,1.154,2.4,3.108S248.186,210.089,246.68,210.089Zm5.827,1.42h1.859v-5.37a1.873,1.873,0,0,1,1.936-2.083,2.61,2.61,0,0,1,.835.112V202.43a2.874,2.874,0,0,0-.636-.069A2.159,2.159,0,0,0,254.323,204h-.043v-1.541h-1.773Zm11.434-2.659a2.049,2.049,0,0,1-2.091,1.274,2.358,2.358,0,0,1-2.435-2.565v-.112h6.394v-.637c0-2.745-1.575-4.466-4.08-4.466-2.547,0-4.19,1.842-4.19,4.682s1.634,4.6,4.268,4.6c2.048,0,3.649-1.128,3.9-2.772Zm-2.212-5a2.178,2.178,0,0,1,2.221,2.3h-4.527A2.293,2.293,0,0,1,261.729,203.85ZM193.06,193.077h.823c.831,0,1.307.364,1.307.955s-.505,1-1.279,1-1.3-.368-1.351-.939h-.89c.054,1.063.943,1.765,2.241,1.765a1.993,1.993,0,0,0,2.229-1.773,1.389,1.389,0,0,0-1.327-1.443v-.071A1.386,1.386,0,0,0,195.9,191.2c0-.947-.828-1.6-2-1.6a1.872,1.872,0,0,0-2.109,1.745h.876a1.063,1.063,0,0,1,1.2-.934c.7,0,1.117.355,1.117.9a1,1,0,0,1-1.125.952h-.8Zm5.591,2.708a1.515,1.515,0,0,0,1.353-.707h.07v.633h.857v-3.077c0-.951-.637-1.513-1.766-1.513-1.021,0-1.75.5-1.841,1.27h.861c.1-.319.442-.5.938-.5.609,0,.922.269.922.744v.389l-1.22.07c-1.07.067-1.674.534-1.674,1.344A1.36,1.36,0,0,0,198.651,195.785Zm.228-.748c-.483,0-.835-.236-.835-.641s.281-.608.9-.649l1.1-.071v.377A1.061,1.061,0,0,1,198.879,195.037Zm6.486-3.081v-.748H202.4v4.5h.888v-3.755Zm3.517-.823a1.564,1.564,0,0,0-1.414.819H207.4v-.744h-.855v6h.889v-2.179h.07a1.468,1.468,0,0,0,1.386.756c1.136,0,1.86-.9,1.86-2.327S210.027,191.133,208.882,191.133Zm-.252,3.854c-.744,0-1.212-.587-1.212-1.526s.468-1.529,1.216-1.529,1.2.574,1.2,1.526S209.387,194.987,208.63,194.987Zm3.673,2.357c.918,0,1.344-.351,1.728-1.447l1.679-4.689h-.942l-1.125,3.577h-.071l-1.129-3.577h-.967l1.63,4.52-.067.219a.77.77,0,0,1-.814.628,2.216,2.216,0,0,1-.29-.016v.765C212.018,197.336,212.229,197.344,212.3,197.344Zm5.964-1.551c1.112,0,1.841-.566,1.841-1.422a1.011,1.011,0,0,0-.881-1.013v-.07a.927.927,0,0,0,.711-.922c0-.761-.613-1.245-1.683-1.245a1.577,1.577,0,0,0-1.774,1.319h.856c.058-.356.421-.566.918-.566.546,0,.811.252.811.583,0,.376-.274.583-.811.583h-.662v.69h.674c.629,0,.955.207.955.641,0,.4-.363.666-.955.666-.521,0-.893-.207-.98-.6H216.4C216.484,195.343,217.283,195.793,218.267,195.793Zm4-.082,2.079-3.114h.067v3.114h.881v-4.5h-.881l-2.076,3.1h-.07v-3.1h-.881v4.5Zm7.879-4.5h-3.725v.748h1.417v3.755h.89v-3.755h1.418Zm3.931,3.287a1.078,1.078,0,0,1-1.071.546,1.19,1.19,0,0,1-1.2-1.29v-.05h3.18v-.31c0-1.414-.757-2.27-2.01-2.27a2.077,2.077,0,0,0-2.076,2.353,2.045,2.045,0,0,0,2.08,2.324,1.83,1.83,0,0,0,1.952-1.3Zm-1.1-2.618a1.088,1.088,0,0,1,1.108,1.167h-2.274A1.151,1.151,0,0,1,232.974,191.877Zm5.728,3.834h2.051c.988,0,1.579-.513,1.579-1.3a1.027,1.027,0,0,0-.963-1.038V193.3a.968.968,0,0,0,.761-.951c0-.7-.517-1.145-1.4-1.145H238.7Zm1.86-3.821c.472,0,.7.228.7.579,0,.381-.256.587-.794.587h-.88V191.89Zm-.037,1.819c.6,0,.918.211.918.662,0,.426-.281.658-.807.658h-1.053v-1.32Z" transform="translate(0.578)" fill="#fff"/>
  </g>
</svg>
