<svg id="Group_3221" data-name="Group 3221" xmlns="http://www.w3.org/2000/svg" width="24" height="24" viewBox="0 0 24 24">
  <defs>
    <style>
      .cls-1 {
        fill: #239a59;
        fill-rule: evenodd;
      }

      .cls-2 {
        fill: none;
      }
    </style>
  </defs>
  <path id="Path_1445" data-name="Path 1445" class="cls-1" d="M6.937,5.845c.071-.1.15-.219.25-.381.056-.091.261-.431.3-.486C8.311,3.622,8.913,3,10,3h4c1.087,0,1.689.622,2.518,1.978.034.055.239.395.3.486.1.162.179.283.25.381.047.065.088.117.121.155H20a3,3,0,0,1,3,3v9a3,3,0,0,1-3,3H4a3,3,0,0,1-3-3V9A3,3,0,0,1,4,6H6.816C6.849,5.962,6.89,5.91,6.937,5.845ZM4,8A1,1,0,0,0,3,9v9a1,1,0,0,0,1,1H20a1,1,0,0,0,1-1V9a1,1,0,0,0-1-1H17a1.887,1.887,0,0,1-1.561-.987c-.1-.143-.205-.3-.328-.5-.062-.1-.27-.445-.3-.492C14.359,5.282,14.087,5,14,5H10c-.087,0-.359.282-.812,1.022-.029.047-.237.391-.3.492-.123.2-.225.356-.328.5A1.887,1.887,0,0,1,7,8Zm15,3a1,1,0,1,0-1-1A1,1,0,0,0,19,11Zm-7,7a5,5,0,1,1,5-5A5,5,0,0,1,12,18Zm0-2a3,3,0,1,0-3-3A3,3,0,0,0,12,16Z" transform="translate(0)"/>
  <rect id="Rectangle_1104" data-name="Rectangle 1104" class="cls-2" width="24" height="24"/>
</svg>
