<svg id="Layer_1" data-name="Layer 1" xmlns="http://www.w3.org/2000/svg" viewBox="0 0 24 24"><defs><style>.cls-1{fill:none;}</style></defs><title>ProRunIcons</title><rect class="cls-1" width="24" height="24"/><path id="Outlined" d="M15.5,5.5a2,2,0,1,0-2-2A2,2,0,0,0,15.5,5.5ZM5,12A5,5,0,0,0,5,22,5,5,0,0,0,5,12Zm0,8.5a3.5,3.5,0,0,1,0-7,3.5,3.5,0,0,1,0,7Zm5.8-10,2.4-2.4.8.8a7,7,0,0,0,4,2,1,1,0,0,0,1.13-1h0a1,1,0,0,0-.85-1A5,5,0,0,1,15.5,7.5L13.6,5.6A2.45,2.45,0,0,0,12,5a1.68,1.68,0,0,0-1.4.6L7.8,8.4a2,2,0,0,0-.6,1.4,1.68,1.68,0,0,0,.6,1.4L11,14v4a1,1,0,0,0,1,1h0a1,1,0,0,0,1-1V13a.48.48,0,0,0-.14-.34ZM19,12a5,5,0,1,0,5,5A5,5,0,0,0,19,12Zm0,8.5A3.5,3.5,0,1,1,22.5,17,3.54,3.54,0,0,1,19,20.5Z"/></svg>