<svg xmlns="http://www.w3.org/2000/svg" width="24" height="20.5" viewBox="0 0 24 20.5">
  <path id="Outlined" d="M-28.5,5.5a2.006,2.006,0,0,0,2-2,2.006,2.006,0,0,0-2-2,2.006,2.006,0,0,0-2,2A2.006,2.006,0,0,0-28.5,5.5ZM-39,12a4.951,4.951,0,0,0-5,5,4.951,4.951,0,0,0,5,5,4.951,4.951,0,0,0,5-5A4.951,4.951,0,0,0-39,12Zm0,8.5A3.543,3.543,0,0,1-42.5,17,3.543,3.543,0,0,1-39,13.5,3.543,3.543,0,0,1-35.5,17,3.543,3.543,0,0,1-39,20.5Zm5.8-10,2.4-2.4.8.8a6.958,6.958,0,0,0,3.967,2.018,1,1,0,0,0,1.133-1V9.915a1,1,0,0,0-.851-.982A4.979,4.979,0,0,1-28.5,7.5l-1.9-1.9A2.452,2.452,0,0,0-32,5a1.678,1.678,0,0,0-1.4.6l-2.8,2.8a1.974,1.974,0,0,0-.6,1.4,1.678,1.678,0,0,0,.6,1.4L-33,14v4a1,1,0,0,0,1,1h0a1,1,0,0,0,1-1V13a.5.5,0,0,0-.139-.346ZM-25,12a4.951,4.951,0,0,0-5,5,4.951,4.951,0,0,0,5,5,4.951,4.951,0,0,0,5-5A4.951,4.951,0,0,0-25,12Zm0,8.5A3.543,3.543,0,0,1-28.5,17,3.543,3.543,0,0,1-25,13.5,3.543,3.543,0,0,1-21.5,17,3.543,3.543,0,0,1-25,20.5Z" transform="translate(44 -1.5)" fill="#8790a6"/>
</svg>
