<svg xmlns="http://www.w3.org/2000/svg" width="24" height="24" viewBox="0 0 24 24">
  <g id="Group_5139" data-name="Group 5139" transform="translate(17 -24)">
    <rect id="Rectangle_1102" data-name="Rectangle 1102" width="24" height="24" transform="translate(-17 24)" fill="none"/>
    <path id="Path_1444" data-name="Path 1444" d="M-3.586,36l6.293-6.293a1,1,0,0,0-1.414-1.414L-5,34.586l-6.293-6.293a1,1,0,0,0-1.414,0,1,1,0,0,0,0,1.414L-6.414,36l-6.293,6.293a1,1,0,0,0,0,1.414A1,1,0,0,0-12,44a1,1,0,0,0,.707-.293L-5,37.414l6.293,6.293a1,1,0,0,0,1.414-1.414Z" fill="#8790a6"/>
  </g>
</svg>
