<svg id="Group_4556" data-name="Group 4556" xmlns="http://www.w3.org/2000/svg" width="24" height="24" viewBox="0 0 24 24">
  <rect id="Rectangle_1224" data-name="Rectangle 1224" width="24" height="24" fill="none"/>
  <path id="Path_1591" data-name="Path 1591" d="M20,4H18.732A2,2,0,0,0,17,3H7A2,2,0,0,0,5.268,4H4A2,2,0,0,0,2,6V9c0,3.223,1.505,5.574,4.219,5.948A7,7,0,0,0,11,17.929V19H9a1,1,0,1,0,0,2h6a1,1,0,1,0,0-2H13V17.929a7,7,0,0,0,4.781-2.981C20.5,14.574,22,12.223,22,9V6A2,2,0,0,0,20,4ZM4,9V6H5v5a7.036,7.036,0,0,0,.128,1.339A4.362,4.362,0,0,1,4,9Zm13,2A5,5,0,0,1,7,11V5H17Zm3-2a4.362,4.362,0,0,1-1.128,3.339A7.036,7.036,0,0,0,19,11V6h1Z" transform="translate(0 0)" fill="#8790a6" fill-rule="evenodd"/>
</svg>
