<svg id="Group_4210" data-name="Group 4210" xmlns="http://www.w3.org/2000/svg" width="16" height="16" viewBox="0 0 16 16">
  <path id="Path_1848" data-name="Path 1848" d="M8,9.333A.667.667,0,1,1,8.667,10,.667.667,0,0,1,8,9.333ZM11.333,10a.667.667,0,1,0-.667-.667A.667.667,0,0,0,11.333,10ZM8.667,12.667A.667.667,0,1,0,8,12,.667.667,0,0,0,8.667,12.667ZM6,12.667A.667.667,0,1,0,5.333,12,.667.667,0,0,0,6,12.667ZM6,10a.667.667,0,1,0-.667-.667A.667.667,0,0,0,6,10Zm9.333-6V14A1.333,1.333,0,0,1,14,15.333H3.333A1.333,1.333,0,0,1,2,14V4A1.333,1.333,0,0,1,3.333,2.667H4.667A.667.667,0,1,1,6,2.667h5.333a.667.667,0,1,1,1.333,0H14A1.333,1.333,0,0,1,15.333,4ZM14,7.333H3.333V14H14ZM14,4H12.667a.667.667,0,1,1-1.333,0H6A.667.667,0,0,1,4.667,4H3.333V6H14Z" transform="translate(-0.667 -0.667)" fill="#8790a6" fill-rule="evenodd"/>
  <rect id="Rectangle_1351" data-name="Rectangle 1351" width="16" height="16" fill="none"/>
</svg>
