<svg id="Group_5219" data-name="Group 5219" xmlns="http://www.w3.org/2000/svg" width="24" height="24" viewBox="0 0 24 24">
  <path id="Path_1865" data-name="Path 1865" d="M20,2H4A2,2,0,0,0,2,4V5.624a2,2,0,0,0,.495,1.317L9,14.376V21.5a1,1,0,0,0,1.351.936l4-1.5A1,1,0,0,0,15,20V14.376l6.5-7.435A2,2,0,0,0,22,5.624V4A2,2,0,0,0,20,2Zm0,3v.624L18.106,7.788,13,13.624v5.683l-2,.75V13.624l-7-8V4H20Z" fill="#8790a6" fill-rule="evenodd"/>
  <rect id="Rectangle_1440" data-name="Rectangle 1440" width="24" height="24" fill="none"/>
</svg>
