<svg id="Icons" xmlns="http://www.w3.org/2000/svg" width="17" height="20" viewBox="0 0 17 20">
  <g id="Outlined">
    <g id="Content">
      <g id="Group_4069" data-name="Group 4069">
        <g id="Group_4068" data-name="Group 4068">
          <path id="Path_1597" data-name="Path 1597" d="M11.68,2H4.5a1,1,0,0,0-1,1V21a1,1,0,0,0,1,1h0a1,1,0,0,0,1-1V12h5.6l.239,1.2a1,1,0,0,0,.981.8H19.5a1,1,0,0,0,1-1V5a1,1,0,0,0-1-1H12.9l-.239-1.2A1,1,0,0,0,11.68,2Z" transform="translate(-3.5 -2)" fill="#239a59" fill-rule="evenodd"/>
        </g>
      </g>
    </g>
  </g>
</svg>
