<svg id="Group_4557" data-name="Group 4557" xmlns="http://www.w3.org/2000/svg" width="24" height="24" viewBox="0 0 24 24">
  <rect id="Rectangle_1526" data-name="Rectangle 1526" width="24" height="24" transform="translate(0 0)" fill="none"/>
  <path id="Path_2215" data-name="Path 2215" d="M5.5,7A3.758,3.758,0,0,1,5,5,2.949,2.949,0,0,1,8,2a4.354,4.354,0,0,1,4,3.114A4.354,4.354,0,0,1,16,2a2.949,2.949,0,0,1,3,3,3.758,3.758,0,0,1-.5,2H20a2,2,0,0,1,2,2v2a2,2,0,0,1-2,2v7a2,2,0,0,1-2,2H6a2,2,0,0,1-2-2V13a2,2,0,0,1-2-2V9A2,2,0,0,1,4,7ZM11,9H4v2h7Zm2,2h7V9H13Zm-2,9V13H6v7Zm2,0h5V13H13ZM8,4A.962.962,0,0,0,7,5c0,1.253,1.017,1.849,3.429,1.974C10.161,5.112,9.162,4,8,4Zm7.929,0C14.767,4,13.768,5.112,13.5,6.974c2.412-.125,3.429-.721,3.429-1.974A.961.961,0,0,0,15.929,4Z" transform="translate(0 0)" fill="#8790a6"/>
</svg>
