<svg xmlns="http://www.w3.org/2000/svg" width="135" height="40" viewBox="0 0 135 40">
  <g id="Group_4441" data-name="Group 4441" transform="translate(-14.121 -181.01)">
    <rect id="Rectangle_1465" data-name="Rectangle 1465" width="135" height="40" rx="6" transform="translate(14.121 181.01)" fill="#1e1e26"/>
    <path id="Path_1886" data-name="Path 1886" d="M82.257,202.762a4.253,4.253,0,1,0,4.269,4.253A4.193,4.193,0,0,0,82.257,202.762Zm0,6.83a2.584,2.584,0,1,1,2.4-2.577A2.46,2.46,0,0,1,82.257,209.592Zm-9.314-6.83a4.253,4.253,0,1,0,4.27,4.253A4.192,4.192,0,0,0,72.943,202.762Zm0,6.83a2.584,2.584,0,1,1,2.4-2.577A2.46,2.46,0,0,1,72.943,209.592Zm-11.078-5.525v1.8h4.317a3.76,3.76,0,0,1-.983,2.271,4.416,4.416,0,0,1-3.334,1.321,4.8,4.8,0,0,1,0-9.6,4.605,4.605,0,0,1,3.254,1.288l1.273-1.272a6.3,6.3,0,0,0-4.527-1.821,6.606,6.606,0,1,0,0,13.211,6.04,6.04,0,0,0,4.607-1.853,5.962,5.962,0,0,0,1.563-4.221,5.829,5.829,0,0,0-.1-1.127Zm45.308,1.4a3.954,3.954,0,0,0-3.641-2.706,4.042,4.042,0,0,0-4.012,4.253,4.163,4.163,0,0,0,4.221,4.253,4.232,4.232,0,0,0,3.545-1.885l-1.45-.967a2.43,2.43,0,0,1-2.1,1.176,2.164,2.164,0,0,1-2.062-1.288l5.687-2.353Zm-5.8,1.418A2.333,2.333,0,0,1,103.6,204.4a1.646,1.646,0,0,1,1.579.9Zm-4.624,4.124h1.869v-12.5H96.749Zm-3.061-7.3h-.064a2.948,2.948,0,0,0-2.239-.95,4.257,4.257,0,0,0,0,8.506,2.9,2.9,0,0,0,2.239-.967h.064v.612c0,1.628-.87,2.5-2.271,2.5a2.354,2.354,0,0,1-2.143-1.515l-1.627.677a4.053,4.053,0,0,0,3.77,2.513c2.191,0,4.044-1.289,4.044-4.43v-7.637H93.688Zm-2.142,5.88a2.587,2.587,0,0,1,0-5.155,2.6,2.6,0,0,1,0,5.155Zm24.381-11.083h-4.471v12.5h1.865v-4.736h2.606a3.888,3.888,0,1,0,0-7.765Zm.048,6.025h-2.654v-4.285h2.654a2.143,2.143,0,1,1,0,4.285Zm11.532-1.795a3.505,3.505,0,0,0-3.33,1.913l1.657.692a1.768,1.768,0,0,1,1.705-.917,1.8,1.8,0,0,1,1.962,1.609v.128a4.131,4.131,0,0,0-1.946-.482c-1.785,0-3.6.981-3.6,2.814a2.889,2.889,0,0,0,3.1,2.751,2.633,2.633,0,0,0,2.381-1.223h.064v.965h1.8V206.2C131.3,203.977,129.646,202.739,127.507,202.739Zm-.226,6.851c-.611,0-1.463-.306-1.463-1.062,0-.964,1.061-1.334,1.978-1.334a3.329,3.329,0,0,1,1.705.418A2.262,2.262,0,0,1,127.281,209.59Zm10.583-6.578-2.139,5.42h-.064l-2.22-5.42h-2.01l3.329,7.575-1.9,4.214h1.946l5.131-11.789Zm-16.807,8h1.866v-12.5h-1.866ZM56.235,195.283H55.5v-2.01h.587a2.857,2.857,0,0,0,.763-2.3V188.01h4.006v5.263h.67v2.01h-.738V194.01h-4.55Zm1.382-4.306a3.953,3.953,0,0,1-.569,2.3h3.033v-4.526H57.617Zm9.918,2.258a3.116,3.116,0,0,1-4.4,0,3.242,3.242,0,0,1,0-4.45,3.106,3.106,0,0,1,4.395,0,3.232,3.232,0,0,1,0,4.446Zm-3.83-.5a2.308,2.308,0,0,0,3.26,0,2.556,2.556,0,0,0,0-3.444,2.306,2.306,0,0,0-3.26,0,2.559,2.559,0,0,0,0,3.444Zm8.6,1.412a3.134,3.134,0,1,1,0-6.268,2.773,2.773,0,0,1,2.2.98l-.537.52a2.021,2.021,0,0,0-1.667-.763,2.269,2.269,0,0,0-1.655.663,2.565,2.565,0,0,0,0,3.468,2.268,2.268,0,0,0,1.655.662,2.366,2.366,0,0,0,1.844-.871l.536.536a2.921,2.921,0,0,1-1.031.784A3.15,3.15,0,0,1,72.3,194.144Zm5.5-.134h-.771v-5.263H75.351v-.737h4.123v.737H77.8Zm6.969-6-2.27,5.061a1.509,1.509,0,0,1-1.4,1.073,1.552,1.552,0,0,1-.6-.134l.2-.712a.815.815,0,0,0,.4.108.707.707,0,0,0,.415-.1.948.948,0,0,0,.272-.381l.218-.478-2.02-4.433H80.9l1.483,3.444h.033l1.449-3.444Zm.873,6v-6h4.341v6H89.21v-5.263h-2.8v5.263Zm5.715,0v-6h.771v2.572h3V188.01H95.9v6h-.771V191.3h-3v2.707Zm10.823-.775a3.116,3.116,0,0,1-4.4,0,3.242,3.242,0,0,1,0-4.45,3.107,3.107,0,0,1,4.4,0,3.233,3.233,0,0,1,0,4.446Zm-3.83-.5a2.308,2.308,0,0,0,3.26,0,2.556,2.556,0,0,0,0-3.444,2.306,2.306,0,0,0-3.26,0,2.559,2.559,0,0,0,0,3.444Zm7.867,1.278v-6h2.17a1.76,1.76,0,0,1,1.219.465,1.507,1.507,0,0,1,.516,1.169,1.3,1.3,0,0,1-.223.754,1.4,1.4,0,0,1-.591.5v.033a1.534,1.534,0,0,1,.73.519,1.37,1.37,0,0,1,.285.855,1.577,1.577,0,0,1-.541,1.224,1.847,1.847,0,0,1-1.278.486Zm.77-3.428h1.4a.9.9,0,0,0,.7-.289.9.9,0,0,0,.008-1.261.861.861,0,0,0-.674-.285h-1.434Zm0,2.691h1.551a.922.922,0,0,0,.721-.311,1,1,0,0,0,.276-.679,1.01,1.01,0,0,0-1.031-.98h-1.517Zm-81.722-5.079c.032-.006.061-.018.095-.022a1.645,1.645,0,0,1,.174-.01,1.9,1.9,0,0,1,.356.045,1.606,1.606,0,0,1,.175.037,2.713,2.713,0,0,1,.551.234l.02.009L40.567,196.4l-3.548,3.548Zm10.695,12.817L24.19,212.78a2.609,2.609,0,0,1-.1-.71h0V189.953h0a2.81,2.81,0,0,1,.047-.5c.009-.049.022-.094.034-.141.005-.022.014-.041.02-.062Zm11.226,0h0a1.267,1.267,0,0,1-.163.578,2.156,2.156,0,0,1-.885.866l-4.217,2.4-3.84-3.84,3.84-3.839,4.217,2.4a1.757,1.757,0,0,1,1.048,1.444h0Zm-6.618,4.607-13.932,7.916a2.712,2.712,0,0,1-.606.258,1.78,1.78,0,0,1-.186.028,1.848,1.848,0,0,1-.367.045,1.339,1.339,0,0,1-.2-.035l-.011,0,11.756-11.756Z" fill="#fff"/>
  </g>
</svg>
