<svg xmlns="http://www.w3.org/2000/svg" width="96" height="40" viewBox="0 0 96 40">
  <defs>
    <style>
      .cls-1 {
        fill: none;
      }

      .cls-2 {
        fill: #239a59;
        fill-rule: evenodd;
      }
    </style>
  </defs>
  <g id="Group_245" data-name="Group 245" transform="translate(-195 -151)">
    <rect id="Rectangle_1" data-name="Rectangle 1" class="cls-1" width="96" height="40" transform="translate(195 151)"/>
    <path id="Path_1" data-name="Path 1" class="cls-2" d="M-461.384-202.054c.06.062.086.046.243.1a.753.753,0,0,0,.458,0c.2-.041.382.02.867.333a7.377,7.377,0,0,1,1.4,1.909c.185.333.232.267.452.45a4.639,4.639,0,0,1,.67.734c.152.218.031-.091-.035-.534a5.376,5.376,0,0,0-.282-1.043,2.041,2.041,0,0,0-.514-.6,3.355,3.355,0,0,1-.349-.641c-.079-.134-.1-.1-.119-.291a.756.756,0,0,0-.071-.357.549.549,0,0,1-.093-.258.654.654,0,0,0-.086-.262c-.051-.1-.13-.117-.1-.248s.194-.181.388-.086a.846.846,0,0,1,.4.549c.04.2.068.051.1-.044s0-.168,0-.3a2.375,2.375,0,0,0-.1-.433c-.031-.148-.039-.408-.066-.56a3.2,3.2,0,0,1-.1-.466c-.027-.264.044-.381.145-.4a.262.262,0,0,1,.188.044c-.02-.135.106-.333.282-.291a.217.217,0,0,1,.181.192.32.32,0,0,1,.177,0c.086.031.152.293.223.459s.275.62.318.706a1.709,1.709,0,0,1,.207.423,1.573,1.573,0,0,0,.24.47,2.851,2.851,0,0,1,.1.878c.031.455-.068.759-.051,1.087a8.579,8.579,0,0,0,.276,1.254c.079.309.611,1.687.694,2.022a12.178,12.178,0,0,1,.08,1.478,1.726,1.726,0,0,1-.241,1.009c-.172.39-.545.324-.893.282a1.2,1.2,0,0,1-.774-.434c-.22-.229-.82-.794-1.114-1.091a8.962,8.962,0,0,1-.862-1.2c-.187-.3-.824-1.1-.882-1.2s-.068-.161-.068.121a1.248,1.248,0,0,1-.161.6,1.252,1.252,0,0,0-.079.732,11.839,11.839,0,0,1-.058,1.391c-.022.329-.064.871-.072,1.233a7.617,7.617,0,0,1-.168,1.187,4.154,4.154,0,0,0-.125.782,3.969,3.969,0,0,1-.115.888,1.985,1.985,0,0,0-.03.683c0,.206-.038.225-.031.362a.948.948,0,0,1-.075.287,2.1,2.1,0,0,0,0,.241v.236c0,.114-.031.286-.031.359s0,.111.011.294-.033.183-.232.7a5.762,5.762,0,0,1-.455.922,25.33,25.33,0,0,1,2.884,2.121,13.1,13.1,0,0,1,2.167,2.146,3.87,3.87,0,0,0,.424.591,1.685,1.685,0,0,1,.01.972,3.264,3.264,0,0,0-.141,1.233,11.3,11.3,0,0,0,.388,2.383,24.806,24.806,0,0,1,.546,2.481,8.3,8.3,0,0,0,.69,2.178s.106.015.11.033a.646.646,0,0,0,.126.15,1.2,1.2,0,0,1,.214.3.642.642,0,0,0,.194.251c.092.073.066.122.119.2s-.126-.138.083.125.141.016.172-.088.069-.057.225.066.088.335.13.5.163.088.251.1a3,3,0,0,1,.633.214,3.019,3.019,0,0,0,.809.251c.24.031.282-.111.569-.111s.649-.115.878-.13a.47.47,0,0,1,.518.428c.053.324-.946,1.109-1.609,1.572a2.487,2.487,0,0,1-1.552.492,3.608,3.608,0,0,0-.977.141,4.294,4.294,0,0,1-.877.178c-.187-.007-.214-.178-.282-.32a.764.764,0,0,1-.083-.282c0-.057-.042-.1-.156-.125s-.126-.267-.25-.568-.262-.419-.319-.581a.182.182,0,0,1,.152-.26c.088,0,.019-.132,0-.246s-.038-.234-.064-.375a1.863,1.863,0,0,0-.207-.465c-.079-.141-.231-.466-.3-.571s0-.13,0-.13-.829-1.629-1.284-2.461a12.659,12.659,0,0,1-1.2-2.8,7.959,7.959,0,0,1-.117-2.554c.007-.183-.172-.267-.516-.6a7.484,7.484,0,0,0-2.212-1.328,8.413,8.413,0,0,1-2.068-1.286,15.243,15.243,0,0,1-2.915,3.354,6.61,6.61,0,0,0-1.175,1.019.948.948,0,0,1-.893.271,4.078,4.078,0,0,1-.868-.267,6.287,6.287,0,0,0-1.684-.062c-.867,0-1.673-.037-2.986-.11a4.835,4.835,0,0,0-1.667.064c-.046.009-.03.062-.171.067a2.806,2.806,0,0,0-.68.167c-.214.084-.576.126-.686.168s-.114.095-.066.141a.9.9,0,0,1-.038.47.388.388,0,0,1-.445.225.27.27,0,0,1-.249-.282.423.423,0,0,0-.172.042,3.281,3.281,0,0,1-.555.167,3.267,3.267,0,0,0-.887.428,3.56,3.56,0,0,0-.728.968c-.183.3-.515.473-.71.344s-.12-.611,0-1.118a4.648,4.648,0,0,1,.622-1.3c.187-.3.611-.812.794-1.052s.255-.787.659-1.451.84-.648,1-.613.24.232.349.289.3.324.439.386a.443.443,0,0,0,.289.037c.114-.007.068.135.2.168s.459.134,1.985-.273,1.312-.49,2.277-.741a4.132,4.132,0,0,1,2.41.172c.695.209.655.024.93-.273a3.934,3.934,0,0,0,.893-1.317c.282-.689.871-2.057,1-2.293a.9.9,0,0,0,.15-.344c.016-.084-.1-.21-.244-.366s-.073-.218-.146-.428a2.915,2.915,0,0,1,.024-.843c.011-.307-.062-.3-.051-.474a.562.562,0,0,1,.088-.324c.068-.13.011-.137.041-.282s.084-.455.126-.633a2.945,2.945,0,0,0,.057-.533,4.112,4.112,0,0,1,.2-.913.828.828,0,0,1,.6-.408c.174-.031.01-.1-.04-.209a.856.856,0,0,1,.02-.47c.038-.167-.213-.362-.377-.691a4.8,4.8,0,0,1-.3-.789c-.066-.218-.145-.6-.348-1.233a6.545,6.545,0,0,1-.276-1.446c0-.113-.1-.143-.165-.278a.145.145,0,0,1,.027-.2s-.285-.6-.646-1.187a2.249,2.249,0,0,1-.357-1.027c-.027-.093-.121-.027-.7.2a7.21,7.21,0,0,1-1.936.549,2.792,2.792,0,0,0-.974.161c-.15.066-.177.324-.188.474a11.637,11.637,0,0,1-.086,1.233,4.437,4.437,0,0,0,.1,1.682,4.355,4.355,0,0,0,.525,1.453c.125.276.419.439.5.6s.186.383.276.571a.983.983,0,0,1,.128.514,2.089,2.089,0,0,0,.307.8c.08.15.125.256-.005.377a.468.468,0,0,1-.549-.044,1.737,1.737,0,0,1-.249-.64c-.035-.178-.059-.026-.071.069a3.053,3.053,0,0,1-.2.54,4.339,4.339,0,0,0-.207.586c-.066.225-.117.276-.157.436a2.579,2.579,0,0,1-.275.642.209.209,0,0,1-.293.064.2.2,0,0,1-.133.144.174.174,0,0,1-.231-.073.972.972,0,0,1,.022-.291c-.037.081-.222.079-.293.039s-.071-.125-.06-.258.039-.361.039-.361c-.12.04-.147-.1-.147-.267s.026-.225.03-.366a6.76,6.76,0,0,1,.084-.7,2.78,2.78,0,0,0,.053-.487,2.393,2.393,0,0,0-.075-.542,1.26,1.26,0,0,1,.106-.633c.073-.225-.022-.23-.079-.371a2.156,2.156,0,0,1-.1-.6,12.834,12.834,0,0,0-.465-1.761,10.558,10.558,0,0,1-.439-1.89c-.03-.388-.035-.884-.077-1.244a.949.949,0,0,1,.317-.8,6.075,6.075,0,0,1,1.193-.756c.36-.183.3-.172,1.023-.545a4.177,4.177,0,0,1,1.495-.448c.157-.015.141-.08.328-.293a2.543,2.543,0,0,1,.752-.569,5.653,5.653,0,0,1,.659-.34,1.141,1.141,0,0,1,1.024.141c.13.084.229-.011.381-.132s.47-.241.522-.3a.331.331,0,0,1,.236-.088c.089,0,.089.031.119,0s.183,0,.262.022.108-.027.2-.117.11-.035.136-.035a.19.19,0,0,0,.134-.057c.075-.057.075,0,.183.015s.065,0,.324-.24.22-.767.236-.9-.183-.306-.361-.646a4.424,4.424,0,0,1-.454-1.067,2.456,2.456,0,0,1,0-1.5c.163-.712.377-.817.377-.817-.068-.118-.459-.046-.459-.046.062-.183.637-.1.637-.1-.006-.068-.141-.171-.141-.171a.336.336,0,0,1,.276.088.672.672,0,0,1,.45-.392.481.481,0,0,0-.271.309,2.685,2.685,0,0,1,1.66-.382,3.779,3.779,0,0,1,1.762.6,1.247,1.247,0,0,1,.459.5c-.046-.061-.183-.031-.183-.031a.627.627,0,0,1,.2.344c-.026-.02-.125,0-.125,0a.735.735,0,0,1,.119.5.116.116,0,0,0-.119-.057s.077.309.13.565a1.9,1.9,0,0,0,.2.494c.05.122-.06.3-.146.388a.693.693,0,0,0-.082.419c0,.146.247.327.3.5s-.106.282-.194.307a.291.291,0,0,0-.205.141c-.035.072.02.172.036.257a.8.8,0,0,1-.121.364c-.066.137-.031.166-.031.278s-.066.13-.117.181-.039.075-.059.231a.512.512,0,0,1-.064.218A.451.451,0,0,1-461.384-202.054Zm-14.878,8.365a4.118,4.118,0,0,0-.168-.578,3.354,3.354,0,0,0-.917-1.343,4.368,4.368,0,0,0-1.7-.888,9.023,9.023,0,0,0-2.56-.313,9.557,9.557,0,0,0-2.951.408,5.58,5.58,0,0,0-2.051,1.14,5.287,5.287,0,0,0-1.188,1.575Zm-12.3,3.774a10.89,10.89,0,0,0,.529,3.4,6.141,6.141,0,0,0,1.659,2.67,3.978,3.978,0,0,0,2.811,1.043,5.026,5.026,0,0,0,2.752-.813,8.307,8.307,0,0,0,2.229-2.121,12.808,12.808,0,0,0,1.561-2.831,12.614,12.614,0,0,0,.8-2.913,8.283,8.283,0,0,0,.08-1.082v-.072h-3.808a2.334,2.334,0,0,1,.079.637,6.238,6.238,0,0,1-.049.69,10.407,10.407,0,0,1-.686,2.476,7.7,7.7,0,0,1-1.182,2.041,1.84,1.84,0,0,1-1.314.818,1.157,1.157,0,0,1-.939-.577,4.427,4.427,0,0,1-.633-1.524,8.651,8.651,0,0,1-.224-1.992,8.451,8.451,0,0,1,.08-1.243,3.82,3.82,0,0,1,.416-1.327H-488.2a8.488,8.488,0,0,0-.251,1.155A12.316,12.316,0,0,0-488.563-189.914Zm-7.975-2.718h-3.508l-1.336,9.538h3.511Zm3.236,0a2.068,2.068,0,0,1-.679,1.135,10.081,10.081,0,0,1-1.433,1.123q-.814.539-1.453.957a27.138,27.138,0,0,0,3.991,8.36l3.226-2.037a28.3,28.3,0,0,1-1.786-2.822,20.541,20.541,0,0,1-1.3-2.9,9.682,9.682,0,0,0,2.355-1.869,4.437,4.437,0,0,0,1.03-1.949Zm-6.026-3.883-1.17,2.827h11.254a2.816,2.816,0,0,0-.836-1.989,3.829,3.829,0,0,0-2.778-.838Zm-2.129,2.827a3.246,3.246,0,0,0-.2-.946,2.573,2.573,0,0,0-.666-.975,3.173,3.173,0,0,0-1.224-.664,6.053,6.053,0,0,0-1.826-.243h-5.457L-512-193.688Zm-7.494,7.618a21.394,21.394,0,0,0,3.32-1.63,12.091,12.091,0,0,0,2.252-1.724,7.309,7.309,0,0,0,1.318-1.726,5.157,5.157,0,0,0,.531-1.482h-3.616c0,.05.006.1.006.159a2.566,2.566,0,0,1-1.14,1.594,13.178,13.178,0,0,1-2.182,1.343l.428-3.1h-3.515l-1.334,9.538h3.514Zm91.672-7.618.4-2.827H-420.4l-.4,2.827Zm-5.005,0-2.024-2.827h-3.347l-.4,2.827Zm4.857,1.056h-3.515l-.1.683-.49-.683H-428.2l-1.345,9.538h3.513l1.206-8.48h.028l3.074,4.518-.562,3.962h3.523Zm-12.852-1.056.4-2.827H-433.4l-.4,2.827Zm-6.174,0q.314-.559.646-1.118.579-.969,1.03-1.709h-3.79q-.923,1.439-1.6,2.684l-.08.143Zm6.026,1.056h-3.517l-.913,6.515h-1.314a4.765,4.765,0,0,1-1-.1,1.717,1.717,0,0,1-.88-.536,1.9,1.9,0,0,1-.4-1.318,4.092,4.092,0,0,1,.056-.593,9.487,9.487,0,0,1,.557-2.088,19.6,19.6,0,0,1,.825-1.876h-3.753c-.207.447-.394.9-.564,1.36a12.816,12.816,0,0,0-.679,2.659,7.552,7.552,0,0,0-.088,1.213,5.2,5.2,0,0,0,.461,2.26,3.286,3.286,0,0,0,1.5,1.5,5.74,5.74,0,0,0,2.665.543h5.7Zm-19.237,0h-3.51l-1.334,9.538H-451Zm3.234,0a2.055,2.055,0,0,1-.679,1.135,9.928,9.928,0,0,1-1.431,1.123q-.814.539-1.455.957a27.142,27.142,0,0,0,3.993,8.36l3.224-2.037a27.873,27.873,0,0,1-1.783-2.822,20.046,20.046,0,0,1-1.3-2.9,9.779,9.779,0,0,0,2.355-1.869,4.46,4.46,0,0,0,1.03-1.949Zm-6.026-3.883-1.171,2.827h11.257a2.818,2.818,0,0,0-.838-1.989,3.829,3.829,0,0,0-2.778-.838Z" transform="translate(707.883 359.497)"/>
  </g>
</svg>
