<svg xmlns="http://www.w3.org/2000/svg" width="20" height="20" viewBox="0 0 20 20">
  <path id="Path_1601" data-name="Path 1601" d="M11,13a1,1,0,1,1,1,1A1,1,0,0,1,11,13Zm5,1a1,1,0,1,0-1-1A1,1,0,0,0,16,14Zm-4,4a1,1,0,1,0-1-1A1,1,0,0,0,12,18ZM8,18a1,1,0,1,0-1-1A1,1,0,0,0,8,18Zm0-4a1,1,0,1,0-1-1A1,1,0,0,0,8,14ZM22,5V20a2,2,0,0,1-2,2H4a2,2,0,0,1-2-2V5A2,2,0,0,1,4,3H6A1,1,0,1,1,8,3h8a1,1,0,1,1,2,0h2A2,2,0,0,1,22,5Zm-2,5H4V20H20Zm0-5H18a1,1,0,1,1-2,0H8A1,1,0,1,1,6,5H4V8H20Z" transform="translate(-2 -2)" fill="#239a59" fill-rule="evenodd"/>
</svg>
