<svg xmlns="http://www.w3.org/2000/svg" width="22" height="22" viewBox="0 0 22 22">
  <path id="Path_1864" data-name="Path 1864" d="M12,7a3,3,0,1,1,3-3A3,3,0,0,1,12,7Zm0-4a1,1,0,1,0,1,1A1,1,0,0,0,12,3Zm1,7a1.079,1.079,0,0,1,1,1.143v1.714a.54.54,0,0,1-.5.572A.539.539,0,0,0,13,14v2.857A1.079,1.079,0,0,1,12,18a1.079,1.079,0,0,1-1-1.143V14a.539.539,0,0,0-.5-.571.54.54,0,0,1-.5-.572V11.143A1.079,1.079,0,0,1,11,10h2m0-2H11a3.078,3.078,0,0,0-3,3.143v1.714a2.594,2.594,0,0,0,1,2.056v1.944A3.078,3.078,0,0,0,12,20a3.078,3.078,0,0,0,3-3.143V14.913a2.594,2.594,0,0,0,1-2.056V11.143A3.078,3.078,0,0,0,13,8Zm9.788,14.615a1,1,0,0,0,.182-.858l-2-8A1,1,0,0,0,20,13H18.006a1,1,0,1,0,0,2h1.212l1.5,6H3.281l1.5-6H5.994a1,1,0,1,0,0-2H4a1,1,0,0,0-.97.757l-2,8A1,1,0,0,0,2,23H22A1,1,0,0,0,22.788,22.615Z" transform="translate(-1 -1)" fill="#239a59"/>
</svg>
