<svg xmlns="http://www.w3.org/2000/svg" width="20" height="20.293" viewBox="0 0 20 20.293">
  <path id="Path_1890" data-name="Path 1890" d="M-251.171,20a3,3,0,0,1-3.441,1.939,3,3,0,0,1-2.337-2.379A3,3,0,0,1-254,16a3,3,0,0,1,2.829,2h8.528a2.6,2.6,0,0,0,2.63-2.242A2.5,2.5,0,0,0-242.5,13h-10.807a4.63,4.63,0,0,1-4.672-4.058A4.5,4.5,0,0,1-253.5,4h3.086L-251,3.414A1,1,0,0,1-251,2h0a1,1,0,0,1,1.414,0l2.293,2.293a1,1,0,0,1,0,1.414L-249.586,8A1,1,0,0,1-251,8h0a1,1,0,0,1,0-1.414l.586-.586h-2.943a2.6,2.6,0,0,0-2.63,2.242A2.5,2.5,0,0,0-253.5,11h10.807a4.63,4.63,0,0,1,4.672,4.058A4.5,4.5,0,0,1-242.5,20ZM-254,18a1,1,0,0,0-1,1,1,1,0,0,0,1,1,1,1,0,0,0,1-1A1,1,0,0,0-254,18Zm12-16a3,3,0,0,1,3,3,3,3,0,0,1-3,3,3,3,0,0,1-3-3A3,3,0,0,1-242,2Zm0,2a1,1,0,0,0-1,1,1,1,0,0,0,1,1,1,1,0,0,0,1-1A1,1,0,0,0-242,4Z" transform="translate(258 -1.707)" fill="#239a59" fill-rule="evenodd"/>
</svg>
