<svg xmlns="http://www.w3.org/2000/svg" width="22" height="16.48" viewBox="0 0 22 16.48">
  <path id="Path_1856" data-name="Path 1856" d="M-86.009-573.76h0a1,1,0,0,1-.983-.851,5.2,5.2,0,0,0-5.122-4.34,5.2,5.2,0,0,0-5.122,4.34,1,1,0,0,1-.983.851h0a1,1,0,0,1-1-1.137,7.2,7.2,0,0,1,7.1-6.054,7.2,7.2,0,0,1,7.1,6.054A1,1,0,0,1-86.009-573.76Zm-2.009-12.384a4.1,4.1,0,0,0-4.1-4.1,4.1,4.1,0,0,0-4.1,4.1,4.1,4.1,0,0,0,4.1,4.1A4.1,4.1,0,0,0-88.018-586.144Zm-2,0a2.1,2.1,0,0,1-2.1,2.1,2.1,2.1,0,0,1-2.1-2.1,2.1,2.1,0,0,1,2.1-2.1A2.1,2.1,0,0,1-90.018-586.144Zm-8.151.775a3.325,3.325,0,0,0-3.322-3.322,3.325,3.325,0,0,0-3.321,3.322,3.325,3.325,0,0,0,3.321,3.321A3.325,3.325,0,0,0-98.169-585.369Zm-2,0a1.323,1.323,0,0,1-1.322,1.321,1.323,1.323,0,0,1-1.321-1.321,1.323,1.323,0,0,1,1.321-1.322A1.322,1.322,0,0,1-100.169-585.369Zm1.63,6.519a.93.93,0,0,0-.233-1.384,5.491,5.491,0,0,0-2.718-.717h0a5.632,5.632,0,0,0-5.482,4.369,1.013,1.013,0,0,0,.974,1.254,1.007,1.007,0,0,0,.975-.8,3.628,3.628,0,0,1,3.533-2.82h0a3.583,3.583,0,0,1,1.691.422.915.915,0,0,0,1.177-.214C-98.6-578.779-98.567-578.815-98.539-578.85Z" transform="translate(107 590.24)" fill="#239a59"/>
</svg>
