<svg id="Group_4367" data-name="Group 4367" xmlns="http://www.w3.org/2000/svg" width="17" height="22" viewBox="0 0 17 22">
  <path id="Path_1862" data-name="Path 1862" d="M13.5,11h-1V9a1,1,0,0,0-2,0v4h3a1,1,0,0,0,0-2Z" transform="translate(-3.5 -1)" fill="#239a59" fill-rule="evenodd"/>
  <path id="Path_1863" data-name="Path 1863" d="M19.619,11h-.181a7.987,7.987,0,0,0-2.791-5.124L15.462,1.725A1,1,0,0,0,14.5,1h-6a1,1,0,0,0-.962.725L6.353,5.876a8,8,0,0,0,0,12.248l1.185,4.151A1,1,0,0,0,8.5,23h6a1,1,0,0,0,.962-.725l1.185-4.151A7.987,7.987,0,0,0,19.438,13h.181a.882.882,0,0,0,.881-.881v-.238A.882.882,0,0,0,19.619,11ZM9.254,3h4.492l.415,1.453a8.042,8.042,0,0,0-5.322,0Zm4.492,18H9.254l-.415-1.453a8.042,8.042,0,0,0,5.322,0ZM11.5,18a6,6,0,1,1,6-6A6,6,0,0,1,11.5,18Z" transform="translate(-3.5 -1)" fill="#239a59" fill-rule="evenodd"/>
</svg>
