<svg xmlns="http://www.w3.org/2000/svg" xmlns:xlink="http://www.w3.org/1999/xlink" width="190.459" height="100" viewBox="0 0 190.459 100">
  <defs>
    <style>
      .cls-1 {
        fill: none;
      }

      .cls-2 {
        fill: #fff;
        fill-rule: evenodd;
      }

      .cls-3 {
        filter: url(#Path_1);
      }
    </style>
    <filter id="Path_1" x="0" y="0" width="190.459" height="100" filterUnits="userSpaceOnUse">
      <feOffset dy="4" input="SourceAlpha"/>
      <feGaussianBlur stdDeviation="6" result="blur"/>
      <feFlood flood-opacity="0.302"/>
      <feComposite operator="in" in2="blur"/>
      <feComposite in="SourceGraphic"/>
    </filter>
  </defs>
  <g id="Group_5410" data-name="Group 5410" transform="translate(-177.697 -136.526)">
    <rect id="Rectangle_1" data-name="Rectangle 1" class="cls-1" width="156" height="64" transform="translate(194.998 150.526)"/>
    <g class="cls-3" transform="matrix(1, 0, 0, 1, 177.7, 136.53)">
      <path id="Path_1-2" data-name="Path 1" class="cls-2" d="M-430.024-198.192c.1.1.139.074.391.156a1.212,1.212,0,0,0,.737-.007c.33-.067.614.032,1.395.536a11.871,11.871,0,0,1,2.249,3.072c.3.536.373.43.728.724a7.461,7.461,0,0,1,1.078,1.181c.244.35.05-.147-.057-.86a8.646,8.646,0,0,0-.454-1.677,3.283,3.283,0,0,0-.827-.958,5.4,5.4,0,0,1-.561-1.032c-.127-.216-.163-.166-.191-.468a1.217,1.217,0,0,0-.114-.575.882.882,0,0,1-.149-.415,1.053,1.053,0,0,0-.138-.422c-.082-.164-.21-.188-.167-.4s.312-.291.625-.138a1.361,1.361,0,0,1,.649.884c.064.319.11.082.159-.07s-.006-.27-.006-.49a3.819,3.819,0,0,0-.164-.7c-.05-.237-.063-.656-.106-.9a5.15,5.15,0,0,1-.16-.749c-.043-.425.071-.613.234-.645a.421.421,0,0,1,.3.071c-.032-.217.17-.536.453-.468a.35.35,0,0,1,.291.308.515.515,0,0,1,.284.007c.139.05.244.472.358.738s.443,1,.511,1.135a2.748,2.748,0,0,1,.333.681,2.532,2.532,0,0,0,.387.755,4.586,4.586,0,0,1,.166,1.413c.05.732-.109,1.22-.082,1.749a13.8,13.8,0,0,0,.444,2.018c.127.5.982,2.715,1.116,3.253a19.6,19.6,0,0,1,.129,2.378,2.776,2.776,0,0,1-.388,1.624c-.276.628-.876.522-1.436.454a1.927,1.927,0,0,1-1.245-.7c-.355-.369-1.319-1.277-1.792-1.756a14.423,14.423,0,0,1-1.387-1.934c-.3-.479-1.326-1.774-1.419-1.926s-.109-.26-.109.195a2.008,2.008,0,0,1-.259.972,2.015,2.015,0,0,0-.127,1.178,19.053,19.053,0,0,1-.093,2.238c-.035.529-.1,1.4-.116,1.983a12.256,12.256,0,0,1-.27,1.909,6.686,6.686,0,0,0-.2,1.259,6.385,6.385,0,0,1-.185,1.429,3.193,3.193,0,0,0-.049,1.1c0,.331-.061.363-.05.582a1.525,1.525,0,0,1-.121.461,3.381,3.381,0,0,0-.007.387v.38c0,.184-.05.46-.05.577s0,.179.018.473-.053.294-.372,1.124a9.27,9.27,0,0,1-.731,1.484,40.754,40.754,0,0,1,4.641,3.412,21.078,21.078,0,0,1,3.487,3.452,6.227,6.227,0,0,0,.682.95,2.711,2.711,0,0,1,.017,1.564,5.252,5.252,0,0,0-.227,1.983,18.191,18.191,0,0,0,.625,3.835,39.907,39.907,0,0,1,.879,3.991,13.348,13.348,0,0,0,1.11,3.5s.171.025.177.053a1.037,1.037,0,0,0,.2.241,1.933,1.933,0,0,1,.344.479,1.032,1.032,0,0,0,.313.4c.148.117.106.2.192.32s-.2-.221.134.2.227.026.276-.141.11-.092.362.107.141.539.21.809.262.141.4.16a4.829,4.829,0,0,1,1.018.344,4.858,4.858,0,0,0,1.3.4c.386.05.454-.178.915-.178s1.044-.185,1.412-.21a.757.757,0,0,1,.834.689c.085.521-1.523,1.784-2.589,2.529a4,4,0,0,1-2.5.791,5.8,5.8,0,0,0-1.572.228,6.91,6.91,0,0,1-1.412.287c-.3-.011-.344-.287-.454-.515a1.229,1.229,0,0,1-.134-.454c-.007-.092-.068-.166-.252-.2s-.2-.429-.4-.915-.422-.675-.514-.934a.293.293,0,0,1,.244-.419c.142,0,.031-.212,0-.4s-.06-.376-.1-.6a3,3,0,0,0-.333-.748c-.128-.228-.372-.749-.482-.919s0-.21,0-.21-1.334-2.621-2.066-3.959a20.365,20.365,0,0,1-1.933-4.5,12.8,12.8,0,0,1-.188-4.108c.011-.3-.276-.429-.83-.957a12.042,12.042,0,0,0-3.558-2.136,13.536,13.536,0,0,1-3.327-2.068,24.524,24.524,0,0,1-4.691,5.4,10.637,10.637,0,0,0-1.891,1.639,1.526,1.526,0,0,1-1.436.436,6.562,6.562,0,0,1-1.4-.429,10.114,10.114,0,0,0-2.71-.1c-1.395.007-2.693-.06-4.8-.177a7.779,7.779,0,0,0-2.683.1c-.075.015-.049.1-.275.108a4.514,4.514,0,0,0-1.093.268c-.344.135-.926.2-1.1.27s-.184.152-.106.227a1.449,1.449,0,0,1-.061.755.625.625,0,0,1-.716.363.435.435,0,0,1-.4-.454.68.68,0,0,0-.276.068,5.279,5.279,0,0,1-.893.269,5.255,5.255,0,0,0-1.428.688,5.728,5.728,0,0,0-1.171,1.558c-.294.478-.829.762-1.142.553s-.194-.983,0-1.8a7.478,7.478,0,0,1,1-2.1c.3-.49.983-1.307,1.277-1.692s.411-1.267,1.06-2.334,1.351-1.043,1.614-.987.387.373.561.465.49.522.706.621a.714.714,0,0,0,.465.06c.184-.011.109.217.318.27s.739.216,3.194-.44,2.11-.788,3.664-1.192a6.648,6.648,0,0,1,3.878.276c1.117.337,1.053.039,1.5-.44a6.331,6.331,0,0,0,1.437-2.118c.454-1.109,1.4-3.309,1.613-3.689a1.449,1.449,0,0,0,.242-.553c.025-.135-.16-.338-.393-.589s-.117-.351-.235-.688a4.69,4.69,0,0,1,.039-1.356c.018-.493-.1-.478-.082-.763a.9.9,0,0,1,.142-.521c.109-.209.018-.22.067-.454s.135-.732.2-1.019a4.74,4.74,0,0,0,.092-.858,6.615,6.615,0,0,1,.319-1.469,1.332,1.332,0,0,1,.965-.656c.28-.05.017-.16-.065-.337a1.377,1.377,0,0,1,.032-.756c.061-.269-.343-.582-.606-1.111a7.721,7.721,0,0,1-.479-1.269c-.106-.351-.234-.965-.56-1.983a10.532,10.532,0,0,1-.444-2.327c-.007-.181-.16-.23-.266-.447a.234.234,0,0,1,.043-.316s-.458-.965-1.04-1.909a3.62,3.62,0,0,1-.575-1.652c-.043-.149-.195-.043-1.128.323a11.6,11.6,0,0,1-3.115.884,4.492,4.492,0,0,0-1.567.259c-.242.106-.284.521-.3.763a18.714,18.714,0,0,1-.139,1.983,7.139,7.139,0,0,0,.164,2.707,7.007,7.007,0,0,0,.844,2.338c.2.444.674.707.8.965s.3.617.444.918a1.582,1.582,0,0,1,.205.828,3.361,3.361,0,0,0,.493,1.28c.128.241.2.412-.008.607a.753.753,0,0,1-.883-.071,2.794,2.794,0,0,1-.4-1.029c-.057-.287-.1-.042-.114.11a4.917,4.917,0,0,1-.323.869,6.976,6.976,0,0,0-.333.943c-.106.362-.188.444-.252.7a4.149,4.149,0,0,1-.443,1.033.336.336,0,0,1-.471.1.319.319,0,0,1-.214.231.281.281,0,0,1-.372-.117,1.563,1.563,0,0,1,.035-.468c-.06.131-.357.127-.471.063s-.114-.2-.1-.415.063-.581.063-.581c-.194.064-.236-.156-.236-.429s.043-.362.049-.589a10.876,10.876,0,0,1,.135-1.124,4.475,4.475,0,0,0,.085-.783,3.853,3.853,0,0,0-.121-.873,2.027,2.027,0,0,1,.17-1.018c.117-.363-.035-.37-.127-.6a3.472,3.472,0,0,1-.16-.957,20.649,20.649,0,0,0-.748-2.834,16.992,16.992,0,0,1-.707-3.041c-.049-.624-.057-1.422-.123-2a1.527,1.527,0,0,1,.51-1.28,9.771,9.771,0,0,1,1.919-1.217c.579-.294.479-.277,1.646-.876a6.72,6.72,0,0,1,2.405-.72c.252-.025.227-.129.528-.472a4.093,4.093,0,0,1,1.21-.916,9.1,9.1,0,0,1,1.06-.547,1.836,1.836,0,0,1,1.647.228c.209.135.368-.018.613-.212s.756-.388.84-.48a.533.533,0,0,1,.38-.141c.143,0,.143.05.192,0s.3.007.422.035.174-.043.327-.188.177-.056.22-.056a.305.305,0,0,0,.216-.092c.121-.092.121,0,.294.025s.1.006.522-.387.355-1.235.38-1.448-.294-.492-.581-1.039a7.118,7.118,0,0,1-.731-1.716,3.951,3.951,0,0,1,.007-2.42c.262-1.146.606-1.314.606-1.314-.109-.19-.738-.074-.738-.074.1-.294,1.025-.153,1.025-.153-.01-.11-.227-.276-.227-.276a.54.54,0,0,1,.444.141,1.082,1.082,0,0,1,.724-.631.774.774,0,0,0-.437.5,4.32,4.32,0,0,1,2.671-.614,6.08,6.08,0,0,1,2.835.968,2.007,2.007,0,0,1,.738.805c-.075-.1-.294-.05-.294-.05a1.01,1.01,0,0,1,.323.554c-.043-.032-.2,0-.2,0a1.183,1.183,0,0,1,.192.809.187.187,0,0,0-.192-.092s.124.5.209.908a3.063,3.063,0,0,0,.32.795c.081.2-.1.476-.235.624a1.115,1.115,0,0,0-.132.674c-.007.235.4.526.49.8s-.17.454-.312.493a.468.468,0,0,0-.331.228c-.056.116.032.276.058.414a1.283,1.283,0,0,1-.2.586c-.107.22-.05.267-.05.447s-.107.209-.188.291-.063.121-.1.372a.824.824,0,0,1-.1.351A.725.725,0,0,1-430.024-198.192Zm-23.938,13.46a6.622,6.622,0,0,0-.27-.93,5.4,5.4,0,0,0-1.475-2.161,7.028,7.028,0,0,0-2.728-1.429,14.517,14.517,0,0,0-4.118-.5,15.377,15.377,0,0,0-4.747.657,8.977,8.977,0,0,0-3.3,1.834,8.507,8.507,0,0,0-1.911,2.533Zm-19.792,6.073a17.52,17.52,0,0,0,.851,5.474,9.881,9.881,0,0,0,2.668,4.3,6.4,6.4,0,0,0,4.523,1.677,8.086,8.086,0,0,0,4.428-1.308,13.366,13.366,0,0,0,3.587-3.412,20.608,20.608,0,0,0,2.512-4.555,20.294,20.294,0,0,0,1.284-4.687,13.327,13.327,0,0,0,.128-1.741v-.117H-459.9a3.754,3.754,0,0,1,.127,1.025,10.044,10.044,0,0,1-.078,1.11,16.744,16.744,0,0,1-1.1,3.984,12.382,12.382,0,0,1-1.9,3.284,2.961,2.961,0,0,1-2.115,1.316,1.862,1.862,0,0,1-1.511-.929,7.122,7.122,0,0,1-1.019-2.452,13.92,13.92,0,0,1-.361-3.2,13.594,13.594,0,0,1,.128-2,6.145,6.145,0,0,1,.67-2.135h-6.106a13.663,13.663,0,0,0-.4,1.858A19.821,19.821,0,0,0-473.754-178.659Zm-12.831-4.373h-5.644l-2.149,15.346h5.65Zm5.207,0a3.328,3.328,0,0,1-1.093,1.826,16.217,16.217,0,0,1-2.306,1.806q-1.31.867-2.338,1.54a43.663,43.663,0,0,0,6.421,13.452l5.19-3.277a45.537,45.537,0,0,1-2.873-4.54,33.053,33.053,0,0,1-2.1-4.662,15.577,15.577,0,0,0,3.789-3.007,7.14,7.14,0,0,0,1.657-3.136Zm-9.7-6.248-1.883,4.548h18.107a4.53,4.53,0,0,0-1.345-3.2q-1.346-1.347-4.47-1.348Zm-3.426,4.548a5.222,5.222,0,0,0-.324-1.522,4.14,4.14,0,0,0-1.071-1.569,5.105,5.105,0,0,0-1.969-1.068,9.738,9.738,0,0,0-2.938-.39h-8.779l-1.88,4.548Zm-12.058,12.257a34.421,34.421,0,0,0,5.341-2.622,19.451,19.451,0,0,0,3.623-2.774,11.76,11.76,0,0,0,2.121-2.777,8.3,8.3,0,0,0,.855-2.384h-5.818c.007.081.01.166.01.255a4.129,4.129,0,0,1-1.834,2.564,21.2,21.2,0,0,1-3.511,2.161l.688-4.981h-5.655l-2.146,15.346h5.654Zm147.5-12.257.638-4.548h-5.652l-.638,4.548Zm-8.053,0-3.256-4.548h-5.386l-.638,4.548Zm7.815,1.7h-5.655l-.155,1.1-.789-1.1h-10.739l-2.164,15.346h5.652l1.94-13.644h.045l4.946,7.269-.9,6.374h5.668Zm-20.678-1.7.642-4.548H-385l-.639,4.548Zm-9.933,0c.337-.6.682-1.2,1.039-1.8q.932-1.559,1.658-2.749h-6.1q-1.485,2.315-2.575,4.318c-.043.077-.085.155-.128.23Zm9.7,1.7h-5.659l-1.468,10.483h-2.115a7.666,7.666,0,0,1-1.617-.167,2.762,2.762,0,0,1-1.416-.862,3.064,3.064,0,0,1-.643-2.121,6.58,6.58,0,0,1,.09-.955,15.261,15.261,0,0,1,.9-3.359,31.524,31.524,0,0,1,1.327-3.019h-6.039c-.333.72-.635,1.446-.908,2.189a20.619,20.619,0,0,0-1.092,4.278,12.145,12.145,0,0,0-.142,1.951,8.361,8.361,0,0,0,.742,3.636,5.287,5.287,0,0,0,2.413,2.419,9.235,9.235,0,0,0,4.288.873h9.178Zm-30.952,0h-5.648l-2.146,15.346h5.651Zm5.2,0a3.306,3.306,0,0,1-1.092,1.826,15.972,15.972,0,0,1-2.3,1.806q-1.309.867-2.341,1.54a43.67,43.67,0,0,0,6.424,13.452l5.187-3.277a44.844,44.844,0,0,1-2.869-4.54,32.252,32.252,0,0,1-2.1-4.662,15.733,15.733,0,0,0,3.788-3.007,7.175,7.175,0,0,0,1.657-3.136Zm-9.7-6.248-1.884,4.548h18.111a4.535,4.535,0,0,0-1.349-3.2q-1.347-1.347-4.47-1.348Z" transform="translate(530.88 222.4)"/>
    </g>
  </g>
</svg>
