<svg xmlns="http://www.w3.org/2000/svg" width="64" height="64" viewBox="0 0 64 64">
  <defs>
    <style>
      .cls-1 {
        fill: none;
      }

      .cls-2 {
        fill: #c0c4ce;
        fill-rule: evenodd;
      }
    </style>
  </defs>
  <g id="Group_5414" data-name="Group 5414" transform="translate(0 0)">
    <rect id="Rectangle_1337" data-name="Rectangle 1337" class="cls-1" width="64" height="64" transform="translate(0 0)"/>
    <path id="Path_1838" data-name="Path 1838" class="cls-2" d="M19,22.333V17a8,8,0,0,1,16,0v5.333a5.332,5.332,0,0,1,5.333,5.333V38.333A5.334,5.334,0,0,1,35,43.667H19a5.334,5.334,0,0,1-5.333-5.333V27.667A5.332,5.332,0,0,1,19,22.333Zm5.333,0h5.333V17a2.667,2.667,0,1,0-5.333,0ZM27,59.667Q3,48.975,3,38.333V11.667C3,9,4.333,9,8.333,6.333,8.765,6.045,17.835,1,27,1A34.545,34.545,0,0,1,45.667,6.333C49.667,9,51,9,51,11.667c.069.776,0,22.667,0,26.667Q51,49,27,59.667Z" transform="translate(5 1.667)"/>
  </g>
</svg>
