<svg xmlns="http://www.w3.org/2000/svg" width="17.95" height="17.156" viewBox="0 0 17.95 17.156">
  <defs>
    <style>
      .cls-1 {
        fill: #8790a6;
        fill-rule: evenodd;
      }
    </style>
  </defs>
  <path id="Path_1837" data-name="Path 1837" class="cls-1" d="M18.88,9.334c-.042-.058-.267-.383-.333-.467a18.94,18.94,0,0,0-1.867-2.1c-2.025-1.958-4.2-3.15-6.475-3.15a7.1,7.1,0,0,0-2.633.525L8.888,5.468A4.825,4.825,0,0,1,10.2,5.284c1.758,0,3.567.992,5.317,2.683a17.29,17.29,0,0,1,1.7,1.917q.162.212.3.4-.138.187-.3.4a16.73,16.73,0,0,1-1.45,1.667l1.183,1.175A19.041,19.041,0,0,0,18.547,11.7c.067-.083.292-.408.333-.467A1.654,1.654,0,0,0,18.88,9.334ZM1.872,1.951h0a.837.837,0,0,0,0,1.183l2.8,2.792c-.317.267-.633.542-.942.842a18.939,18.939,0,0,0-1.867,2.1c-.067.083-.292.408-.333.467a1.654,1.654,0,0,0,0,1.9c.042.058.267.383.333.467A18.939,18.939,0,0,0,3.73,13.8c2.025,1.958,4.2,3.15,6.475,3.15a7.866,7.866,0,0,0,4.175-1.317l2.975,2.983a.837.837,0,0,0,1.183,0h0a.837.837,0,0,0,0-1.183L3.055,1.951A.837.837,0,0,0,1.872,1.951ZM8.6,9.851l2.042,2.042a1.511,1.511,0,0,1-.433.058,1.672,1.672,0,0,1-1.667-1.667A1.511,1.511,0,0,1,8.6,9.851ZM10.2,15.284c-1.758,0-3.567-.992-5.317-2.683a17.29,17.29,0,0,1-1.7-1.917q-.162-.212-.3-.4.137-.187.3-.4a17.289,17.289,0,0,1,1.7-1.917c.325-.308.642-.592.967-.858L7.33,8.593A3.337,3.337,0,0,0,11.9,13.159l1.258,1.258A6,6,0,0,1,10.2,15.284Z" transform="translate(-1.23 -1.706)"/>
</svg>
