<svg xmlns="http://www.w3.org/2000/svg" width="20" height="20" viewBox="0 0 20 20">
  <defs>
    <style>
      .cls-1 {
        fill: #8790a6;
        fill-rule: evenodd;
      }

      .cls-2 {
        fill: none;
      }
    </style>
  </defs>
  <g id="Group_4169" data-name="Group 4169" transform="translate(44)">
    <path id="Path_1836" data-name="Path 1836" class="cls-1" d="M-33.8,4c2.273,0,4.447,1.193,6.472,3.151a19.288,19.288,0,0,1,1.867,2.1c.1.123.215.29.339.468a1.665,1.665,0,0,1,0,1.9c-.124.178-.244.345-.339.468a19.288,19.288,0,0,1-1.867,2.1c-2.025,1.958-4.2,3.151-6.472,3.151s-4.447-1.192-6.472-3.151a19.289,19.289,0,0,1-1.867-2.1c-.095-.123-.215-.29-.339-.468a1.665,1.665,0,0,1,0-1.9c.124-.177.244-.345.339-.468a19.289,19.289,0,0,1,1.867-2.1C-38.242,5.193-36.069,4-33.8,4Zm7.018,6.264a17.716,17.716,0,0,0-1.7-1.915c-1.744-1.688-3.559-2.683-5.313-2.683s-3.569.995-5.313,2.683a17.716,17.716,0,0,0-1.705,1.915c-.109.141-.21.276-.3.4.092.127.193.262.3.4a17.716,17.716,0,0,0,1.705,1.915c1.744,1.687,3.559,2.682,5.313,2.682s3.569-1,5.313-2.682a17.716,17.716,0,0,0,1.7-1.915c.109-.141.21-.276.3-.4C-26.567,10.54-26.668,10.4-26.777,10.264ZM-33.8,14a3.333,3.333,0,0,1-3.333-3.333A3.333,3.333,0,0,1-33.8,7.333a3.333,3.333,0,0,1,3.333,3.333A3.333,3.333,0,0,1-33.8,14Zm0-1.667a1.666,1.666,0,0,0,1.667-1.667A1.666,1.666,0,0,0-33.8,9a1.666,1.666,0,0,0-1.667,1.667A1.666,1.666,0,0,0-33.8,12.333Z" transform="translate(-0.205 -0.667)"/>
    <rect id="Rectangle_1335" data-name="Rectangle 1335" class="cls-2" width="20" height="20" transform="translate(-44)"/>
  </g>
</svg>
