<svg id="Layer_1" data-name="Layer 1" xmlns="http://www.w3.org/2000/svg" viewBox="0 0 24 24"><defs><style>.cls-1{fill-rule:evenodd;}.cls-2{fill:none;}</style></defs><title>ProRunIcons</title><path class="cls-1" d="M11,6.25a1.53,1.53,0,0,1-.12,2.09,5.84,5.84,0,0,1-.43.51l-.28.28-.77.77a6.66,6.66,0,0,0,1.92,2.8,6.78,6.78,0,0,0,2.8,1.92l.76-.77a6.57,6.57,0,0,1,1-.83,1.48,1.48,0,0,1,1.92,0,29.6,29.6,0,0,1,3.53,2.76,2.7,2.7,0,0,1,0,3.68c-.31.33-.71.73-1.17,1.17-2.81,2.82-8.75,1.1-13.29-3.45S.56,6.7,3.36,3.89L4.52,2.73a2.73,2.73,0,0,1,3.71,0A33.31,33.31,0,0,1,11,6.25Zm5.3,9-.77.76c-1.3,1.31-3.52.2-5.63-1.91S6.66,9.79,8,8.48l.76-.76c.12-.13.18-.18.25-.25s.17-.18.23-.26A30,30,0,0,0,6.82,4.15a.73.73,0,0,0-.89,0L4.78,5.3C3,7.1,4.36,11.89,8.23,15.77S16.89,21,18.71,19.21c.46-.44.83-.82,1.12-1.12a.72.72,0,0,0,0-.92,29.17,29.17,0,0,0-3-2.38A6.22,6.22,0,0,0,16.28,15.27Z"/><rect class="cls-2" width="24" height="24"/></svg>