<svg id="Layer_1" data-name="Layer 1" xmlns="http://www.w3.org/2000/svg" viewBox="0 0 24 24"><defs><style>.cls-1{fill-rule:evenodd;}.cls-2{fill:none;}</style></defs><title>ProRunIcons</title><path class="cls-1" d="M8,9a7,7,0,0,1,7.1-7A7.09,7.09,0,0,1,22,8.9,7,7,0,0,1,15,16H13v1a1,1,0,0,1-1,1H11v1a1,1,0,0,1-1,1H9v1a1,1,0,0,1-1,1H4a2,2,0,0,1-2-2V17.41A2,2,0,0,1,2.59,16l5.56-5.56A6.9,6.9,0,0,1,8,9Zm3,5h4a5,5,0,1,0-4.79-3.55l.18.58L4,17.41V20H7V18H9V16h2Zm4-3a2,2,0,1,1,2-2A2,2,0,0,1,15,11Z"/><rect class="cls-2" width="24" height="24"/></svg>