<svg id="Layer_1" data-name="Layer 1" xmlns="http://www.w3.org/2000/svg" viewBox="0 0 24 24"><defs><style>.cls-1{fill:none;}.cls-2{fill-rule:evenodd;}</style></defs><title>ProRunIcons</title><rect class="cls-1" width="24" height="24"/><path class="cls-2" d="M20,4H18.73A2,2,0,0,0,17,3H7A2,2,0,0,0,5.27,4H4A2,2,0,0,0,2,6V9C2,12.22,3.5,14.57,6.22,15a7,7,0,0,0,4.78,3V19H9a1,1,0,0,0,0,2h6a1,1,0,0,0,0-2H13V17.93a7,7,0,0,0,4.78-3C20.5,14.57,22,12.22,22,9V6A2,2,0,0,0,20,4ZM4,9V6H5v5a6.55,6.55,0,0,0,.13,1.34A4.37,4.37,0,0,1,4,9Zm13,2A5,5,0,0,1,7,11V5H17Zm3-2a4.37,4.37,0,0,1-1.13,3.34A6.55,6.55,0,0,0,19,11V6h1Z"/></svg>