<svg id="Layer_1" data-name="Layer 1" xmlns="http://www.w3.org/2000/svg" viewBox="0 0 24 24"><defs><style>.cls-1{fill:none;}.cls-2{fill-rule:evenodd;}</style></defs><title>ProRunIcons</title><rect class="cls-1" width="24" height="24"/><path class="cls-2" d="M13.49,5.48a2,2,0,1,0-2-2A2,2,0,0,0,13.49,5.48ZM8.18,17l-3.9-.8A1,1,0,0,0,3.09,17v0a1,1,0,0,0,.79,1.19l5.06,1a1,1,0,0,0,1.17-.76L10.89,15,13,17v5a1,1,0,0,0,1,1h0a1,1,0,0,0,1-1V15.91a1,1,0,0,0-.31-.73l-1.79-1.7.6-3a7.32,7.32,0,0,0,4.36,2.41,1,1,0,0,0,1.14-1h0a1,1,0,0,0-.85-1,4.83,4.83,0,0,1-3.45-2.33l-1-1.6A2.15,2.15,0,0,0,11,6.14L6.6,8A1,1,0,0,0,6,8.94v3a1,1,0,0,0,1,1H7a1,1,0,0,0,1-1V9.58l1.8-.7Z"/></svg>