<svg xmlns="http://www.w3.org/2000/svg" width="15.922" height="21.5" viewBox="0 0 15.922 21.5">
  <path id="Path_1593" data-name="Path 1593" d="M13.49,5.48a2,2,0,1,0-2-2A2.006,2.006,0,0,0,13.49,5.48Zm-5.308,11.5-3.9-.795a1.01,1.01,0,0,0-1.192.791l0,.016a1.009,1.009,0,0,0,.792,1.188L8.942,19.19a1,1,0,0,0,1.172-.761l.776-3.449,2.1,2v5.01a.99.99,0,0,0,.99.99H14a.99.99,0,0,0,.99-.99V15.909a1,1,0,0,0-.31-.725l-1.79-1.7.6-3a7.327,7.327,0,0,0,4.364,2.411,1,1,0,0,0,1.136-1h0a1,1,0,0,0-.846-.981A4.852,4.852,0,0,1,14.69,8.58l-1-1.6a2.145,2.145,0,0,0-2.655-.838L6.6,8.022a1,1,0,0,0-.61.92V11.98a1,1,0,0,0,1,1h0a1,1,0,0,0,1-1V9.58l1.8-.7Z" transform="translate(-3.068 -1.48)" fill="#8790a6" fill-rule="evenodd"/>
</svg>
