<svg xmlns="http://www.w3.org/2000/svg" width="58.667" height="58.667" viewBox="0 0 58.667 58.667">
  <defs>
    <style>
      .cls-1 {
        fill: #c0c4ce;
      }
    </style>
  </defs>
  <path id="Path_1842" data-name="Path 1842" class="cls-1" d="M73.441,1h0a29.333,29.333,0,0,0,0,58.667h0A29.333,29.333,0,1,0,73.441,1ZM64.713,14.333A4.364,4.364,0,1,1,60.351,18.7,4.368,4.368,0,0,1,64.713,14.333Zm7.275,23.272a1.454,1.454,0,0,1-1.456,1.456H68.815l-1.219,6.1a1.456,1.456,0,0,1-1.427,1.168H63.26a1.456,1.456,0,0,1-1.427-1.168l-1.219-6.1H58.9a1.454,1.454,0,0,1-1.456-1.456V25.971A1.454,1.454,0,0,1,58.9,24.515H70.532a1.454,1.454,0,0,1,1.456,1.456ZM82.169,14.333A4.364,4.364,0,1,1,77.807,18.7,4.368,4.368,0,0,1,82.169,14.333Zm6.944,27.1a1.463,1.463,0,0,1-1.125.533H86.127L85,45.339a1.454,1.454,0,0,1-1.381.995H80.713a1.453,1.453,0,0,1-1.379-.995l-1.123-3.368H76.351a1.456,1.456,0,0,1-1.427-1.741l2.909-14.544a1.456,1.456,0,0,1,1.427-1.171h5.819a1.456,1.456,0,0,1,1.427,1.171l2.909,14.544A1.461,1.461,0,0,1,89.113,41.437Z" transform="translate(-44.108 -1)"/>
</svg>
