<svg xmlns="http://www.w3.org/2000/svg" width="24" height="24" viewBox="0 0 24 24">
  <g id="Group_4464" data-name="Group 4464" transform="translate(88)">
    <rect id="Rectangle_1434" data-name="Rectangle 1434" width="24" height="24" transform="translate(-64 24) rotate(180)" fill="none"/>
    <path id="Path_1860" data-name="Path 1860" d="M-76,8.02V5a1,1,0,0,1,1.66-.75l8,7a1,1,0,0,1,0,1.5l-8,7A1,1,0,0,1-76,19V15.87a9.645,9.645,0,0,0-8.29,2.84l-.79.78c-.03.03-.05.06-.08.09a.513.513,0,0,1-.34.13.5.5,0,0,1-.5-.5V18C-86,11.73-82.549,8.33-76,8.02Zm1.16,5.99.84.14V16.8l5.48-4.8L-74,7.2V10h-1c-5.2,0-8.05,1.85-8.8,5.72A11.981,11.981,0,0,1-74.839,14.01Z" transform="translate(0 0)" fill="#8790a6" fill-rule="evenodd"/>
  </g>
</svg>
