<svg id="Group_4558" data-name="Group 4558" xmlns="http://www.w3.org/2000/svg" width="24" height="24" viewBox="0 0 24 24">
  <path id="Path_2216" data-name="Path 2216" d="M12.835,22.716a2,2,0,0,1-1.682,0Q2.995,18.9,2.994,15.1V5.1c0-1,.5-1,2-2a16.017,16.017,0,0,1,7-2,12.954,12.954,0,0,1,7,2c1.5,1,2,1,2,2,.027.291,0,8.5,0,10Q20.994,18.908,12.835,22.716ZM18.994,15.1c0-.23.012-9.038.01-9.631-.331-.2-.847-.523-1.119-.7A10.951,10.951,0,0,0,11.994,3.1,13.423,13.423,0,0,0,6.1,4.763c-.27.18-.779.494-1.11.7V15.1c0,1.509,2.229,3.569,7,5.8C16.766,18.673,18.994,16.613,18.994,15.1Zm-8-2.414L14.58,9.1a1,1,0,0,1,1.414,0h0a1,1,0,0,1,0,1.414L11.7,14.806a1,1,0,0,1-1.414,0L7.994,12.513a1,1,0,0,1,0-1.414h0a1,1,0,0,1,1.414,0Z" transform="translate(0 0)" fill="#8790a6" fill-rule="evenodd"/>
  <rect id="Rectangle_1527" data-name="Rectangle 1527" width="24" height="24" fill="none"/>
</svg>
