<svg xmlns="http://www.w3.org/2000/svg" width="19.2" height="16.704" viewBox="0 0 19.2 16.704">
  <path id="Subtraction_3" data-name="Subtraction 3" d="M117.415,49.747a.517.517,0,0,1-.306-.1l-4.448-3.227a.732.732,0,0,0-.9.023L109.3,48.456a.521.521,0,0,1-.829-.248l-1.71-5.5-4.418-1.652a.509.509,0,0,1-.342-.48.518.518,0,0,1,.337-.493l18.157-7a.535.535,0,0,1,.194-.04.512.512,0,0,1,.4.19.534.534,0,0,1,.1.437l-3.26,15.672A.517.517,0,0,1,117.415,49.747Zm-.278-13.5a.137.137,0,0,0-.083.028L108,41.849a.909.909,0,0,0-.391,1.026l.977,3.434a.228.228,0,0,0,.223.168.238.238,0,0,0,.24-.2l.252-1.889a1.559,1.559,0,0,1,.481-.93l7.463-6.936a.155.155,0,0,0,.036-.175A.164.164,0,0,0,117.137,36.247Z" transform="translate(-102 -33.043)" />
</svg>
