<svg id="Group_4619" data-name="Group 4619" xmlns="http://www.w3.org/2000/svg" width="16" height="16" viewBox="0 0 16 16">
  <path id="Path_2275" data-name="Path 2275" d="M9.667,6.833V9.5a.667.667,0,1,1-1.333,0V6.833a.667.667,0,1,1,1.333,0ZM15,9.481A6.065,6.065,0,0,1,9.183,15.5a6,6,0,0,1-.85-11.961v-.7a.667.667,0,1,1,0-1.333H9.667a.667.667,0,1,1,0,1.333v.7a5.976,5.976,0,0,1,3.078,1.275l.646-.649a.667.667,0,0,1,.945.941l-.648.651A5.971,5.971,0,0,1,15,9.481ZM13.667,9.5A4.667,4.667,0,1,0,9,14.167,4.667,4.667,0,0,0,13.667,9.5Z" transform="translate(-1 -0.5)" fill="#239a59" fill-rule="evenodd"/>
  <rect id="Rectangle_1550" data-name="Rectangle 1550" width="16" height="16" fill="none"/>
</svg>
