<svg id="Layer_1" data-name="Layer 1" xmlns="http://www.w3.org/2000/svg" viewBox="0 0 24 24"><defs><style>.cls-1{fill:none;}.cls-2{fill-rule:evenodd;}</style></defs><title>ProRunIcons</title><polygon id="Path" class="cls-1" points="0 0 24 0 24 24 0 24 0 0"/><path class="cls-2" d="M13.5,5.5a2,2,0,1,0-2-2A2,2,0,0,0,13.5,5.5ZM9.8,8.9,7.23,21.82a1,1,0,0,0,1,1.18h.1a1,1,0,0,0,1-.77L10.9,15,13,17v5a1,1,0,0,0,1,1h0a1,1,0,0,0,1-1V15.93a1,1,0,0,0-.31-.73L12.9,13.5l.6-3a7.32,7.32,0,0,0,4.36,2.41,1,1,0,0,0,1.14-1h0a1,1,0,0,0-.85-1A4.83,4.83,0,0,1,14.7,8.6L13.7,7A2.15,2.15,0,0,0,11,6.16L6.61,8A1,1,0,0,0,6,9v3a1,1,0,0,0,1,1H7a1,1,0,0,0,1-1V9.6Z"/></svg>