<svg xmlns="http://www.w3.org/2000/svg" width="16" height="16" viewBox="0 0 16 16">
  <g id="Group_5282" data-name="Group 5282" transform="translate(88)">
    <path id="Path" d="M-88,0h16V16H-88Z" fill="none"/>
    <path id="Path_1595" data-name="Path 1595" d="M-77,4.167a1.337,1.337,0,0,0,1.333-1.333A1.337,1.337,0,0,0-77,1.5a1.337,1.337,0,0,0-1.333,1.333A1.337,1.337,0,0,0-77,4.167Zm-2.467,2.267-1.71,8.611a.66.66,0,0,0,.647.789h.068a.66.66,0,0,0,.644-.515l1.084-4.818,1.4,1.333v3.34a.66.66,0,0,0,.66.66h.013a.66.66,0,0,0,.66-.66V11.119a.668.668,0,0,0-.207-.483L-77.4,9.5l.4-2a4.885,4.885,0,0,0,2.909,1.607.667.667,0,0,0,.757-.665h0a.665.665,0,0,0-.564-.654,3.235,3.235,0,0,1-2.3-1.555l-.667-1.067a1.43,1.43,0,0,0-1.77-.559l-2.957,1.253A.666.666,0,0,0-82,6.475V8.5a.667.667,0,0,0,.667.667h0a.667.667,0,0,0,.667-.667V6.9Z" transform="translate(-2 -0.5)" fill="#239a59" fill-rule="evenodd"/>
  </g>
</svg>
