<svg xmlns="http://www.w3.org/2000/svg" width="13" height="21.5" viewBox="0 0 13 21.5">
  <path id="Path_1595" data-name="Path 1595" d="M-74.5,5.5a2.006,2.006,0,0,0,2-2,2.006,2.006,0,0,0-2-2,2.006,2.006,0,0,0-2,2A2.006,2.006,0,0,0-74.5,5.5Zm-3.7,3.4-2.565,12.917A.99.99,0,0,0-79.794,23h.1a.99.99,0,0,0,.966-.773L-77.1,15l2.1,2v5.01a.99.99,0,0,0,.99.99h.02a.99.99,0,0,0,.99-.99V15.929a1,1,0,0,0-.31-.725l-1.79-1.7.6-3a7.327,7.327,0,0,0,4.364,2.411,1,1,0,0,0,1.136-1h0a1,1,0,0,0-.846-.981A4.852,4.852,0,0,1-73.3,8.6l-1-1.6a2.145,2.145,0,0,0-2.655-.838l-4.435,1.88a1,1,0,0,0-.61.92V12a1,1,0,0,0,1,1h0a1,1,0,0,0,1-1V9.6Z" transform="translate(82 -1.5)" fill="#8790a6" fill-rule="evenodd"/>
</svg>
